<?xml version="1.0" encoding="UTF-8"?>
<svg version="1.1" xmlns="http://www.w3.org/2000/svg" width="800" height="800">
<path d="M0 0 C1.25600995 -0.00307895 1.25600995 -0.00307895 2.53739384 -0.0062201 C5.34382513 -0.01187551 8.15020713 -0.01043465 10.9566431 -0.00901413 C12.98893336 -0.01159861 15.02122311 -0.014612 17.05351216 -0.01801753 C22.63918689 -0.0260812 28.22484877 -0.02787675 33.81052864 -0.028615 C39.83462962 -0.03046668 45.85872395 -0.03801465 51.88282108 -0.04475021 C65.74352827 -0.05903814 79.60423367 -0.06485978 93.46494642 -0.06944216 C100.31843534 -0.07177983 107.17192344 -0.0753827 114.02541171 -0.07913754 C137.49797602 -0.09197242 160.97053986 -0.10269111 184.4431076 -0.10614014 C185.91606631 -0.10636177 187.38902502 -0.10658355 188.86198372 -0.10680549 C190.33844863 -0.10702613 191.81491353 -0.10724661 193.29137844 -0.10746694 C196.25329141 -0.10790948 199.21520438 -0.1083566 202.17711735 -0.10880661 C202.91149729 -0.108916 203.64587723 -0.10902539 204.40251111 -0.1091381 C228.2038012 -0.11276707 252.00506081 -0.1286814 275.80633923 -0.15199697 C300.98601906 -0.17661759 326.16568147 -0.19031403 351.34537369 -0.19150805 C354.11191563 -0.1916795 356.87845757 -0.19189493 359.6449995 -0.19214249 C360.32617157 -0.19219826 361.00734364 -0.19225402 361.70915728 -0.19231148 C372.65069244 -0.19346005 383.59219621 -0.20446562 394.53372079 -0.21902954 C405.54143101 -0.23342766 416.54910644 -0.2363613 427.55682432 -0.22858956 C433.51520353 -0.22468903 439.47347756 -0.2255836 445.43184376 -0.23964691 C450.89429466 -0.25242145 456.35656175 -0.2511571 461.81901253 -0.2390562 C463.78744817 -0.23710534 465.75589699 -0.24014912 467.72431415 -0.24890056 C482.73178282 -0.31135905 497.23242754 0.54024112 511.15587711 6.75642776 C511.95275944 7.10560257 512.74964176 7.45477737 513.57067204 7.81453323 C535.89764755 17.94125864 552.27083578 36.19383926 561.21251774 58.83186722 C565.29010648 69.71888249 566.73783495 79.67823439 566.90587711 91.25642776 C566.92835514 92.2264473 566.95083317 93.19646683 566.97399235 94.19588089 C566.95325144 100.74362486 566.05091806 106.90685379 564.73619938 113.2945137 C564.55873676 114.16752562 564.38127415 115.04053753 564.19843388 115.94000435 C562.22980268 125.49219338 559.97541483 134.97206174 557.68712711 144.45174026 C557.231675 146.3511253 556.77656504 148.25059241 556.32177067 150.15013504 C555.12166668 155.15842926 553.91701931 160.16561845 552.71099186 165.17248917 C551.46296431 170.35531154 550.2177363 175.53880652 548.97228336 180.72224808 C548.47473496 182.79292924 547.97717641 184.86360796 547.47960758 186.93428421 C547.23490726 187.95262848 546.99020695 188.97097275 546.73809147 190.02017593 C546.00296333 193.07848579 545.2672101 196.13664474 544.53136539 199.19478226 C541.84428366 210.3671333 539.18318814 221.54497677 536.56212711 232.73299026 C535.76873355 236.10352363 534.97471314 239.47390871 534.18053532 242.84425735 C533.71447413 244.83188768 533.25193077 246.82034696 532.79332829 248.80971146 C528.18165952 268.80767115 522.33940584 287.46754499 508.46837711 303.13142776 C507.62790836 304.09049026 506.78743961 305.04955276 505.92150211 306.03767776 C490.08772189 323.34580184 467.86897543 333.21420742 444.53444803 334.31741583 C440.04574185 334.4151493 435.55741613 334.40332821 431.06791019 334.39212418 C429.33567574 334.39515002 427.60344262 334.39904167 425.87121183 334.40371674 C421.14278888 334.41394962 416.41444216 334.411827 411.6860131 334.40753615 C406.57408681 334.40506033 401.46217846 334.41409368 396.35025883 334.42157364 C386.34762552 334.43429891 376.34501909 334.43611704 366.34237906 334.43377338 C358.20876515 334.43198763 350.07515938 334.43374535 341.94154644 334.43799782 C340.20264026 334.4388906 340.20264026 334.4388906 338.42860467 334.43980142 C336.07325631 334.44101322 333.71790795 334.44222735 331.36255959 334.4434438 C309.29235809 334.45431096 287.22217189 334.45216074 265.15196953 334.44605895 C244.98155669 334.44089049 224.81119216 334.45214485 204.64078888 334.47115717 C183.90682796 334.49055018 163.17288988 334.498789 142.43891984 334.49503392 C130.80759612 334.4931241 119.17631351 334.49558804 107.54499722 334.50974846 C97.64311475 334.52168187 87.74129869 334.52304516 77.83941527 334.51095829 C72.79236049 334.5050834 67.74542706 334.50393162 62.69838047 334.51596069 C58.06884318 334.526866 53.43952792 334.52366128 48.81000081 334.50969901 C47.14457075 334.50706482 45.47912302 334.50937793 43.81371035 334.51743487 C19.63981788 334.62616921 -2.6842929 328.96724542 -21.53162289 313.13142776 C-22.62410336 312.25744339 -22.62410336 312.25744339 -23.73865414 311.36580276 C-37.70553299 299.72266032 -46.54058642 284.13274146 -51.36194515 266.77791214 C-51.61559873 265.87613991 -51.8692523 264.97436768 -52.13059235 264.04526901 C-55.40845986 252.20617109 -58.18783682 240.24469748 -60.99646664 228.28767776 C-61.59844365 225.74147061 -62.20087552 223.19537096 -62.80373287 220.6493721 C-64.21922204 214.66835058 -65.62991279 208.68620907 -67.03865677 202.70359564 C-69.08573315 194.01114032 -71.14044366 185.32048926 -73.19475555 176.62974167 C-74.67277488 170.37669925 -76.14980261 164.123428 -77.6234045 157.8693428 C-78.16950571 155.55369871 -78.71565275 153.23806542 -79.2618475 150.92244339 C-79.65750865 149.24256207 -79.65750865 149.24256207 -80.06116295 147.52874374 C-81.50347582 141.42142403 -82.96956323 135.32063018 -84.46402645 129.22591019 C-84.78738026 127.90295116 -85.11068928 126.57998118 -85.43395233 125.25699997 C-86.04890886 122.74550161 -86.66757407 120.23490735 -87.29060173 117.72539902 C-93.98110224 90.37845583 -90.15041801 65.27601841 -75.53162289 41.13142776 C-73.35856633 37.9777856 -71.01022505 35.04838533 -68.53162289 32.13142776 C-67.96185726 31.40568558 -67.39209164 30.67994339 -66.80506039 29.93220901 C-50.93669348 10.58630638 -24.60994233 -0.05658458 0 0 Z M-31.77381039 67.59627151 C-38.43082011 77.19715887 -40.91229049 88.32710402 -39.11139965 99.81113243 C-38.50060352 102.70517778 -37.82484644 105.5754858 -37.12000179 108.44807816 C-36.86296474 109.53460175 -36.6059277 110.62112534 -36.34110165 111.74057388 C-35.49083033 115.32272374 -34.62463475 118.90081602 -33.75818539 122.47908401 C-33.15342144 125.01193255 -32.5496292 127.54501327 -31.9467535 130.07831192 C-30.5157219 136.08393109 -29.07309101 142.08670148 -27.62632883 148.08854812 C-26.01935472 154.75765872 -24.42591806 161.4299776 -22.83344603 168.10256314 C-19.93111182 180.26266222 -17.00621276 192.41720432 -14.06910229 204.56895256 C-12.45140055 211.27439828 -10.85703907 217.98456585 -9.29433537 224.70304203 C-8.40656064 228.51536494 -7.50744671 232.32496286 -6.60667706 236.13423347 C-6.20544607 237.84488284 -5.80973677 239.55683929 -5.42028332 241.27020836 C-2.81437092 252.72694039 0.07555492 264.26766965 9.46837711 272.13142776 C10.10388493 272.69474808 10.73939274 273.25806839 11.39415836 273.83845901 C22.11369802 282.8824756 33.11667395 283.71808026 46.59278202 283.63936234 C48.31932059 283.643977 50.04585523 283.65033371 51.77238172 283.65827131 C56.49418857 283.67490985 61.21567044 283.66674326 65.93747818 283.65432644 C71.03843191 283.64525587 76.13933074 283.65925558 81.24027348 283.67024612 C91.22382019 283.68801412 101.20724648 283.68419911 111.19079787 283.67259556 C119.30544876 283.66355526 127.42006594 283.66233982 135.53472042 283.66669083 C136.6904438 283.66730376 137.84616718 283.66791669 139.03691248 283.6685482 C141.38486431 283.66982712 143.73281612 283.67112397 146.08076792 283.67243856 C168.08689619 283.68383919 190.09295775 283.67073848 212.09907507 283.6492371 C230.97587125 283.63136423 249.85256904 283.63447281 268.72936344 283.65291214 C290.65928897 283.67432387 312.58915607 283.6827431 334.51909059 283.67046309 C336.85801024 283.66918891 339.1969299 283.66793143 341.53584957 283.66669083 C342.68659568 283.66607372 343.83734178 283.66545662 345.02295898 283.66482082 C353.12711983 283.66136901 361.23124357 283.66719258 369.33539867 283.67660904 C379.21264009 283.68783363 389.08975437 283.68477911 398.96698124 283.66348606 C404.00520564 283.6529823 409.04321815 283.64884248 414.08144093 283.66208267 C418.69601143 283.67402604 423.31017417 283.66741192 427.92470782 283.64617246 C429.59143282 283.64171468 431.25819245 283.64395411 432.92489506 283.65367562 C446.9778195 283.72933776 458.21558419 281.03241424 468.66759586 271.02595901 C476.04515255 263.10292678 479.04294435 255.02969591 481.45763493 244.65535355 C481.72822224 243.52861725 481.99880955 242.40188095 482.27759647 241.24100113 C483.16829554 237.52175311 484.04494888 233.79934524 484.92150211 230.07674026 C485.54486886 227.45631201 486.17118965 224.8365922 486.79741764 222.21684647 C488.27964986 216.00857445 489.75174002 209.7979437 491.22021365 203.58640468 C492.86040991 196.65072762 494.51207323 189.71779954 496.16469145 182.78507376 C499.13275723 170.33322253 502.08534336 157.8777943 505.02894306 145.4201355 C506.51431254 139.14022006 508.0100883 132.86308102 509.52834034 126.59103203 C510.30028207 123.40184487 511.06682324 120.21137313 511.83274937 117.02073669 C512.1649007 115.64441214 512.49989852 114.26877036 512.83819675 112.89394379 C516.12109488 99.55091931 518.74123126 85.64435074 511.46837711 73.13142776 C511.03267399 72.35541214 510.59697086 71.57939651 510.14806461 70.77986526 C504.08235723 60.86922862 495.59754655 54.68877333 484.47037814 51.56463829 C481.00902985 50.81564141 477.5359847 50.85662104 474.01369858 50.87695217 C473.18469127 50.87374569 472.35568397 50.87053922 471.50155523 50.86723557 C468.72347269 50.85893378 465.94560564 50.86486052 463.16751957 50.87073135 C461.15570109 50.86771075 459.14388375 50.86382173 457.13206846 50.85913879 C451.60320227 50.84883822 446.07440079 50.85104586 440.54552925 50.85531938 C434.58288964 50.85778288 428.62026575 50.8487771 422.65763187 50.84128189 C410.97575972 50.82852221 399.29390571 50.82673697 387.61202856 50.82908215 C378.11761728 50.83091499 368.62321274 50.8291554 359.1288023 50.82485771 C357.76461985 50.82425531 356.4004374 50.82365411 355.03625495 50.82305411 C352.98053972 50.82214685 350.92482449 50.82123818 348.86910926 50.82032176 C329.75596658 50.81189216 310.64282644 50.80755655 291.52968216 50.81172848 C290.80916065 50.81188485 290.08863914 50.81204123 289.34628364 50.81220234 C285.694423 50.81300812 282.04256236 50.81385389 278.39070173 50.81471565 C277.66543553 50.81488673 276.94016932 50.81505782 276.19292536 50.81523409 C274.72626069 50.81558075 273.25959602 50.81592928 271.79293136 50.81627968 C248.97338692 50.82163647 226.15388113 50.81370769 203.33434391 50.79524612 C177.69377485 50.77452655 152.05322974 50.76380337 126.41265184 50.76782161 C123.6782343 50.76821695 120.94381677 50.7685785 118.20939922 50.76891899 C117.19948267 50.76905509 117.19948267 50.76905509 116.16916376 50.76919394 C106.00854283 50.77035956 95.84794609 50.76371425 85.6873312 50.75310707 C74.13018388 50.74105426 62.57308883 50.73977519 51.01594039 50.75189724 C45.11906499 50.75779425 39.22229368 50.75886255 33.32542515 50.74689484 C27.92619714 50.73606442 22.52716048 50.73910566 17.12794153 50.75315652 C15.17576513 50.75581128 13.22357388 50.75341254 11.27141204 50.74542066 C-6.7033818 50.67694799 -19.55341338 53.17422404 -31.77381039 67.59627151 Z " fill="#202020" transform="translate(161.53162288665771,232.86857223510742)"/>
<path d="M0 0 C4.96045522 3.45115159 8.77169939 7.9640262 11.60546875 13.27734375 C12.9815139 22.0496316 12.93395606 29.78675737 8.10546875 37.46484375 C3.26208985 43.38452907 -2.62657014 47.47169061 -10.26953125 48.46484375 C-18.00187295 48.80707741 -24.24710992 47.15745941 -30.26953125 42.21484375 C-36.21758925 36.5191276 -38.59946582 30.89082516 -39.14453125 22.71484375 C-38.9846094 14.98044145 -36.29771839 8.78478989 -30.96484375 3.1953125 C-22.45090783 -3.92105281 -9.83866601 -5.03581994 0 0 Z " fill="#202020" transform="translate(579.89453125,335.53515625)"/>
<path d="M0 0 C6.12169153 5.11681009 9.20606251 11.18524659 10.27734375 19.03125 C10.63860938 26.31436512 8.38829443 32.68155663 3.8125 38.3125 C-1.74698063 44.15111773 -7.53888858 46.54983459 -15.55859375 47.02734375 C-23.29118506 46.94073873 -29.08709692 43.89826291 -35 39 C-40.93982904 31.68944119 -41.93431257 24.17755133 -41 15 C-39.10781119 7.6578542 -34.67281896 1.83598731 -28.19140625 -2.09765625 C-19.22903771 -6.10370456 -8.27608029 -5.08305969 0 0 Z " fill="#202020" transform="translate(499,337)"/>
<path d="M0 0 C4.96045522 3.45115159 8.77169939 7.9640262 11.60546875 13.27734375 C12.9815139 22.0496316 12.93395606 29.78675737 8.10546875 37.46484375 C3.26208985 43.38452907 -2.62657014 47.47169061 -10.26953125 48.46484375 C-18.00187295 48.80707741 -24.24710992 47.15745941 -30.26953125 42.21484375 C-36.21758925 36.5191276 -38.59946582 30.89082516 -39.14453125 22.71484375 C-38.9846094 14.98044145 -36.29771839 8.78478989 -30.96484375 3.1953125 C-22.45090783 -3.92105281 -9.83866601 -5.03581994 0 0 Z " fill="#202020" transform="translate(329.89453125,335.53515625)"/>
<path d="M0 0 C6.12169153 5.11681009 9.20606251 11.18524659 10.27734375 19.03125 C10.63860938 26.31436512 8.38829443 32.68155663 3.8125 38.3125 C-1.74698063 44.15111773 -7.53888858 46.54983459 -15.55859375 47.02734375 C-23.29118506 46.94073873 -29.08709692 43.89826291 -35 39 C-40.93982904 31.68944119 -41.93431257 24.17755133 -41 15 C-39.10781119 7.6578542 -34.67281896 1.83598731 -28.19140625 -2.09765625 C-19.22903771 -6.10370456 -8.27608029 -5.08305969 0 0 Z " fill="#202020" transform="translate(249,337)"/>
<path d="M0 0 C5.31168007 5.57837531 8.04680543 11.55453502 8.4296875 19.2734375 C8.0861112 26.47422414 5.64699081 32.50252276 0.734375 37.76953125 C-5.68966401 43.52128711 -12.39203361 44.70527227 -20.7734375 44.61328125 C-27.47130431 43.89565266 -32.85181656 40.83020949 -37.3828125 35.8984375 C-42.76407574 28.77931588 -43.98327473 22.04478863 -42.9453125 13.2734375 C-40.79952807 5.9557624 -37.18221925 0.42191518 -30.5703125 -3.4765625 C-20.4834982 -8.69218355 -8.5948122 -7.62832729 0 0 Z " fill="#202020" transform="translate(375.9453125,422.7265625)"/>
<path d="M0 0 C4.82730455 3.88624157 7.89972122 8.65036133 9.1640625 14.7421875 C10.07232599 23.19885698 9.13458191 29.71835529 4.1640625 36.7421875 C-0.37114249 41.83756033 -5.75305506 45.33615499 -12.6640625 46.0234375 C-20.78457773 46.26827716 -26.47041186 45.13688844 -33.0859375 40.4296875 C-38.98684683 34.66288975 -41.48636845 29.07684376 -42.1484375 20.8671875 C-41.87771578 13.0764181 -39.1209349 7.11508644 -33.80078125 1.46875 C-23.89983449 -7.23148552 -10.72541424 -7.11622723 0 0 Z " fill="#202020" transform="translate(457.8359375,421.2578125)"/>
<path d="M0 0 C5.59603323 3.5349428 9.80889862 8.93060212 11.8984375 15.19921875 C12.72296316 24.25722204 12.34350682 31.68187895 6.8984375 39.19921875 C1.59023587 45.09089563 -4.82822001 47.64948507 -12.5859375 48.1953125 C-19.78098217 48.20648493 -25.44805971 45.54322423 -31.1015625 41.19921875 C-36.21752342 35.94498862 -38.73112575 29.48447489 -39.1015625 22.19921875 C-38.36113808 13.9872388 -35.62396604 7.72162229 -29.7890625 1.88671875 C-20.51809763 -3.93458477 -9.90760752 -5.0968739 0 0 Z " fill="#202020" transform="translate(413.1015625,335.80078125)"/>
<path d="M0 0 C5.15557339 4.86067866 8.64104188 9.27267903 9.3359375 16.48828125 C9.42353395 25.06397361 9.27354619 31.42980852 3.19921875 37.92578125 C-3.49449472 44.20357466 -9.74004909 46.68217353 -18.9375 46.40625 C-27.01229295 45.335104 -32.49992635 41.17316474 -37.625 35.0625 C-42.13901614 28.29147579 -41.64930019 20.81657532 -41 13 C-39.33962416 6.24290087 -34.495277 1.9645285 -29 -2 C-19.99641519 -6.71616347 -8.24264233 -5.97292922 0 0 Z " fill="#202020" transform="translate(541,421)"/>
<path d="M0 0 C5.15557339 4.86067866 8.64104188 9.27267903 9.3359375 16.48828125 C9.42353395 25.06397361 9.27354619 31.42980852 3.19921875 37.92578125 C-3.49449472 44.20357466 -9.74004909 46.68217353 -18.9375 46.40625 C-27.01229295 45.335104 -32.49992635 41.17316474 -37.625 35.0625 C-42.13901614 28.29147579 -41.64930019 20.81657532 -41 13 C-39.33962416 6.24290087 -34.495277 1.9645285 -29 -2 C-19.99641519 -6.71616347 -8.24264233 -5.97292922 0 0 Z " fill="#202020" transform="translate(291,421)"/>
</svg>
