<?xml version="1.0" encoding="UTF-8"?>
<svg version="1.1" xmlns="http://www.w3.org/2000/svg" width="815" height="818">
<path d="M0 0 C268.95 0 537.9 0 815 0 C815 269.94 815 539.88 815 818 C546.05 818 277.1 818 0 818 C0 548.06 0 278.12 0 0 Z " fill="#FEFEFE" transform="translate(0,0)"/>
<path d="M0 0 C0.61875 0.01289063 1.2375 0.02578125 1.875 0.0390625 C2.49375 0.02617187 3.1125 0.01328125 3.75 0 C5.875 0.6640625 5.875 0.6640625 8.24609375 3.1640625 C12.85336135 7.0575342 18.31057833 6.37958018 24.0625 6.328125 C25.2383667 6.33290863 26.4142334 6.33769226 27.62573242 6.34262085 C30.10694724 6.3460169 32.58820697 6.3368354 35.06933594 6.31591797 C38.86234523 6.2891518 42.65239502 6.31567964 46.4453125 6.34765625 C48.85938152 6.3443521 51.2734487 6.33794578 53.6875 6.328125 C54.81889404 6.33824615 55.95028809 6.34836731 57.1159668 6.35879517 C63.82587162 6.34169313 63.82587162 6.34169313 69.50390625 3.1640625 C70.28636719 2.3390625 71.06882812 1.5140625 71.875 0.6640625 C74 0 74 0 75.875 0.0390625 C76.49375 0.02617187 77.1125 0.01328125 77.75 0 C79.875 0.6640625 79.875 0.6640625 82.24609375 3.1640625 C86.85336135 7.0575342 92.31057833 6.37958018 98.0625 6.328125 C99.2383667 6.33290863 100.4142334 6.33769226 101.62573242 6.34262085 C104.10694724 6.3460169 106.58820697 6.3368354 109.06933594 6.31591797 C112.86234523 6.2891518 116.65239502 6.31567964 120.4453125 6.34765625 C122.85938152 6.3443521 125.2734487 6.33794578 127.6875 6.328125 C128.81889404 6.33824615 129.95028809 6.34836731 131.1159668 6.35879517 C137.82587162 6.34169313 137.82587162 6.34169313 143.50390625 3.1640625 C144.28636719 2.3390625 145.06882812 1.5140625 145.875 0.6640625 C148 0 148 0 149.875 0.0390625 C150.49375 0.02617187 151.1125 0.01328125 151.75 0 C153.875 0.6640625 153.875 0.6640625 156.24609375 3.1640625 C160.85336135 7.0575342 166.31057833 6.37958018 172.0625 6.328125 C173.2383667 6.33290863 174.4142334 6.33769226 175.62573242 6.34262085 C178.10694724 6.3460169 180.58820697 6.3368354 183.06933594 6.31591797 C186.86234523 6.2891518 190.65239502 6.31567964 194.4453125 6.34765625 C196.85938152 6.3443521 199.2734487 6.33794578 201.6875 6.328125 C202.81889404 6.33824615 203.95028809 6.34836731 205.1159668 6.35879517 C211.82587162 6.34169313 211.82587162 6.34169313 217.50390625 3.1640625 C218.28636719 2.3390625 219.06882812 1.5140625 219.875 0.6640625 C222 0 222 0 223.875 0.0390625 C224.49375 0.02617187 225.1125 0.01328125 225.75 0 C227.875 0.6640625 227.875 0.6640625 233.875 5.6640625 C268.03 6.1590625 268.03 6.1590625 302.875 6.6640625 C302.875 83.5540625 302.875 160.4440625 302.875 239.6640625 C268.225 240.1590625 268.225 240.1590625 232.875 240.6640625 C231.885 241.6540625 230.895 242.6440625 229.875 243.6640625 C227.0625 244.0625 227.0625 244.0625 223.875 244.0390625 C222.823125 244.04679688 221.77125 244.05453125 220.6875 244.0625 C217.875 243.6640625 217.875 243.6640625 216.53881836 242.16342163 C214.18857769 240.04548923 212.571497 240.28350903 209.44140625 240.27587891 C207.77452759 240.26169418 207.77452759 240.26169418 206.07397461 240.2472229 C204.87393799 240.25329559 203.67390137 240.25936829 202.4375 240.265625 C201.20588135 240.26275482 199.9742627 240.25988464 198.70532227 240.25692749 C195.43152043 240.25436092 192.15814463 240.2664464 188.88439941 240.28320312 C186.87689615 240.28905697 184.86978631 240.28322455 182.86230469 240.27294922 C179.01218305 240.2544527 175.16264566 240.25665258 171.3125 240.265625 C169.51244507 240.25651596 169.51244507 240.25651596 167.67602539 240.2472229 C166.56477295 240.25667938 165.45352051 240.26613586 164.30859375 240.27587891 C162.83990845 240.27945908 162.83990845 240.27945908 161.34155273 240.28311157 C158.44438915 240.73056892 157.77351988 241.53186996 155.875 243.6640625 C153.0625 244.0625 153.0625 244.0625 149.875 244.0390625 C148.823125 244.04679688 147.77125 244.05453125 146.6875 244.0625 C143.875 243.6640625 143.875 243.6640625 142.53881836 242.16342163 C140.18857769 240.04548923 138.571497 240.28350903 135.44140625 240.27587891 C133.77452759 240.26169418 133.77452759 240.26169418 132.07397461 240.2472229 C130.87393799 240.25329559 129.67390137 240.25936829 128.4375 240.265625 C127.20588135 240.26275482 125.9742627 240.25988464 124.70532227 240.25692749 C121.43152043 240.25436092 118.15814463 240.2664464 114.88439941 240.28320312 C112.87689615 240.28905697 110.86978631 240.28322455 108.86230469 240.27294922 C105.01218305 240.2544527 101.16264566 240.25665258 97.3125 240.265625 C95.51244507 240.25651596 95.51244507 240.25651596 93.67602539 240.2472229 C92.56477295 240.25667938 91.45352051 240.26613586 90.30859375 240.27587891 C88.83990845 240.27945908 88.83990845 240.27945908 87.34155273 240.28311157 C84.44438915 240.73056892 83.77351988 241.53186996 81.875 243.6640625 C79.0625 244.0625 79.0625 244.0625 75.875 244.0390625 C74.823125 244.04679688 73.77125 244.05453125 72.6875 244.0625 C69.875 243.6640625 69.875 243.6640625 68.53881836 242.16342163 C66.18857769 240.04548923 64.571497 240.28350903 61.44140625 240.27587891 C59.77452759 240.26169418 59.77452759 240.26169418 58.07397461 240.2472229 C56.87393799 240.25329559 55.67390137 240.25936829 54.4375 240.265625 C53.20588135 240.26275482 51.9742627 240.25988464 50.70532227 240.25692749 C47.43152043 240.25436092 44.15814463 240.2664464 40.88439941 240.28320312 C38.87689615 240.28905697 36.86978631 240.28322455 34.86230469 240.27294922 C31.01218305 240.2544527 27.16264566 240.25665258 23.3125 240.265625 C21.51244507 240.25651596 21.51244507 240.25651596 19.67602539 240.2472229 C18.56477295 240.25667938 17.45352051 240.26613586 16.30859375 240.27587891 C14.83990845 240.27945908 14.83990845 240.27945908 13.34155273 240.28311157 C10.44438915 240.73056892 9.77351988 241.53186996 7.875 243.6640625 C5.0625 244.0625 5.0625 244.0625 1.875 244.0390625 C0.823125 244.04679688 -0.22875 244.05453125 -1.3125 244.0625 C-4.125 243.6640625 -4.125 243.6640625 -5.54299688 242.16275537 C-7.55537663 240.25635003 -8.51389205 240.28836598 -11.24954987 240.28653908 C-12.09317125 240.27871584 -12.93679263 240.27089259 -13.8059783 240.26283228 C-14.73291195 240.26952445 -15.65984561 240.27621661 -16.61486816 240.28311157 C-18.09174221 240.27609161 -18.09174221 240.27609161 -19.59845209 240.26892984 C-22.91277511 240.25691998 -26.2266892 240.26646056 -29.54101562 240.27587891 C-31.91094709 240.27181587 -34.28087666 240.26647551 -36.65080261 240.25994873 C-42.42867801 240.24766286 -48.20642245 240.24949754 -53.98430192 240.25818665 C-58.67910432 240.26495534 -63.37387394 240.26588346 -68.06867981 240.2626152 C-68.73626923 240.2621555 -69.40385865 240.26169581 -70.09167805 240.26122218 C-71.44777327 240.26026302 -72.80386847 240.25929038 -74.15996367 240.2583044 C-86.88312142 240.24974494 -99.60621437 240.25959334 -112.3293615 240.2757055 C-123.25199611 240.28910921 -134.17453508 240.28678127 -145.09716797 240.27294922 C-157.77406245 240.2569032 -170.45090011 240.25056896 -183.12780333 240.25978601 C-184.47897561 240.26074168 -185.83014789 240.26168479 -187.18132019 240.2626152 C-188.1785854 240.26330944 -188.1785854 240.26330944 -189.19599739 240.26401771 C-193.88644151 240.26661054 -198.57684966 240.2622303 -203.26728821 240.25517654 C-209.57752884 240.24653302 -215.88758824 240.25248095 -222.19780922 240.26985931 C-224.51863109 240.27383815 -226.83946813 240.2726664 -229.16028404 240.26607132 C-232.31877506 240.25792094 -235.47667864 240.26809864 -238.63513184 240.28311157 C-240.02553232 240.27307332 -240.02553232 240.27307332 -241.4440217 240.26283228 C-242.28764308 240.27065553 -243.13126447 240.27847877 -244.00045013 240.28653908 C-245.09445326 240.28726966 -245.09445326 240.28726966 -246.21055746 240.28801501 C-248.65860761 240.76887724 -249.44237434 241.8825791 -251.125 243.6640625 C-253.9375 244.0625 -253.9375 244.0625 -257.125 244.0390625 C-258.176875 244.04679688 -259.22875 244.05453125 -260.3125 244.0625 C-263.125 243.6640625 -263.125 243.6640625 -264.46118164 242.16342163 C-266.81142231 240.04548923 -268.428503 240.28350903 -271.55859375 240.27587891 C-273.22547241 240.26169418 -273.22547241 240.26169418 -274.92602539 240.2472229 C-276.12606201 240.25329559 -277.32609863 240.25936829 -278.5625 240.265625 C-279.79411865 240.26275482 -281.0257373 240.25988464 -282.29467773 240.25692749 C-285.56847957 240.25436092 -288.84185537 240.2664464 -292.11560059 240.28320312 C-294.12310385 240.28905697 -296.13021369 240.28322455 -298.13769531 240.27294922 C-301.98781695 240.2544527 -305.83735434 240.25665258 -309.6875 240.265625 C-311.48755493 240.25651596 -311.48755493 240.25651596 -313.32397461 240.2472229 C-314.43522705 240.25667938 -315.54647949 240.26613586 -316.69140625 240.27587891 C-318.16009155 240.27945908 -318.16009155 240.27945908 -319.65844727 240.28311157 C-322.55561085 240.73056892 -323.22648012 241.53186996 -325.125 243.6640625 C-327.9375 244.0625 -327.9375 244.0625 -331.125 244.0390625 C-332.176875 244.04679688 -333.22875 244.05453125 -334.3125 244.0625 C-337.125 243.6640625 -337.125 243.6640625 -338.46118164 242.16342163 C-340.81142231 240.04548923 -342.428503 240.28350903 -345.55859375 240.27587891 C-347.22547241 240.26169418 -347.22547241 240.26169418 -348.92602539 240.2472229 C-350.12606201 240.25329559 -351.32609863 240.25936829 -352.5625 240.265625 C-353.79411865 240.26275482 -355.0257373 240.25988464 -356.29467773 240.25692749 C-359.56847957 240.25436092 -362.84185537 240.2664464 -366.11560059 240.28320312 C-368.12310385 240.28905697 -370.13021369 240.28322455 -372.13769531 240.27294922 C-375.98781695 240.2544527 -379.83735434 240.25665258 -383.6875 240.265625 C-385.48755493 240.25651596 -385.48755493 240.25651596 -387.32397461 240.2472229 C-388.43522705 240.25667938 -389.54647949 240.26613586 -390.69140625 240.27587891 C-392.16009155 240.27945908 -392.16009155 240.27945908 -393.65844727 240.28311157 C-396.55561085 240.73056892 -397.22648012 241.53186996 -399.125 243.6640625 C-401.9375 244.0625 -401.9375 244.0625 -405.125 244.0390625 C-406.176875 244.04679688 -407.22875 244.05453125 -408.3125 244.0625 C-411.125 243.6640625 -411.125 243.6640625 -414.125 240.6640625 C-443.495 240.3340625 -472.865 240.0040625 -503.125 239.6640625 C-503.125 162.7740625 -503.125 85.8840625 -503.125 6.6640625 C-449.63019531 6.64279297 -449.63019531 6.64279297 -395.0546875 6.62109375 C-373.20218102 6.60165176 -351.34968603 6.58141402 -329.49718833 6.55517755 C-317.74036064 6.54107122 -305.98353267 6.52723055 -294.22670394 6.51401479 C-292.72404235 6.51232504 -291.22138076 6.51062796 -289.71871918 6.50892346 C-265.75531413 6.48180213 -241.79193509 6.47082447 -217.82851586 6.46826726 C-193.20368539 6.46555398 -168.57892032 6.44652185 -143.95412025 6.40690135 C-140.47753269 6.40131526 -137.00094487 6.39591609 -133.52435684 6.39063072 C-132.84010189 6.38958469 -132.15584694 6.38853865 -131.45085699 6.38746092 C-120.42792089 6.37109092 -109.40505011 6.37196807 -98.38210707 6.37926533 C-87.30534405 6.38623122 -76.22869471 6.37469318 -65.15196161 6.3453996 C-59.14823849 6.33006683 -53.14479323 6.32295116 -47.14106178 6.33746529 C-41.64849233 6.35056644 -36.1564627 6.34082185 -30.66395439 6.31262477 C-28.67328983 6.30648836 -26.6825778 6.3088582 -24.69193743 6.32043324 C-21.9919315 6.33490898 -19.29378451 6.31881307 -16.59388542 6.29491901 C-15.42630205 6.3122151 -15.42630205 6.3122151 -14.23513114 6.3298606 C-7.01307101 6.20330532 -6.0029129 1.87591028 0 0 Z " fill="#FEFEFE" transform="translate(511.125,288.3359375)"/>
<path d="M0 0 C101.97 0 203.94 0 309 0 C309 1.32 309 2.64 309 4 C312.3 4 315.6 4 319 4 C319 4.33 319 4.66 319 5 C315.7 5 312.4 5 309 5 C309 6.65 309 8.3 309 10 C312.3 10 315.6 10 319 10 C319 10.33 319 10.66 319 11 C315.7 11 312.4 11 309 11 C309 12.65 309 14.3 309 16 C312.3 16 315.6 16 319 16 C319 16.33 319 16.66 319 17 C315.7 17 312.4 17 309 17 C309 18.65 309 20.3 309 22 C312.3 22 315.6 22 319 22 C319 22.33 319 22.66 319 23 C315.7 23 312.4 23 309 23 C309 24.65 309 26.3 309 28 C312.3 28 315.6 28 319 28 C319 28.33 319 28.66 319 29 C315.7 29 312.4 29 309 29 C309 30.65 309 32.3 309 34 C312.3 34 315.6 34 319 34 C319 34.33 319 34.66 319 35 C315.7 35 312.4 35 309 35 C309 36.65 309 38.3 309 40 C312.3 40 315.6 40 319 40 C319 40.33 319 40.66 319 41 C315.7 41 312.4 41 309 41 C309 42.65 309 44.3 309 46 C312.3 46 315.6 46 319 46 C319 46.33 319 46.66 319 47 C315.7 47 312.4 47 309 47 C309 48.65 309 50.3 309 52 C312.3 52 315.6 52 319 52 C319 52.33 319 52.66 319 53 C315.7 53 312.4 53 309 53 C309 54.65 309 56.3 309 58 C312.3 58 315.6 58 319 58 C319 58.33 319 58.66 319 59 C315.7 59 312.4 59 309 59 C309 60.65 309 62.3 309 64 C312.3 64 315.6 64 319 64 C319 64.33 319 64.66 319 65 C315.7 65 312.4 65 309 65 C309 66.65 309 68.3 309 70 C312.3 70 315.6 70 319 70 C319 70.33 319 70.66 319 71 C315.7 71 312.4 71 309 71 C309 72.65 309 74.3 309 76 C312.3 76 315.6 76 319 76 C319 76.33 319 76.66 319 77 C315.7 77 312.4 77 309 77 C309 78.65 309 80.3 309 82 C312.3 82 315.6 82 319 82 C319 82.33 319 82.66 319 83 C315.7 83 312.4 83 309 83 C309 84.65 309 86.3 309 88 C312.3 88 315.6 88 319 88 C319 88.33 319 88.66 319 89 C315.7 89 312.4 89 309 89 C309 90.65 309 92.3 309 94 C312.3 94 315.6 94 319 94 C319 94.33 319 94.66 319 95 C315.7 95 312.4 95 309 95 C309 96.65 309 98.3 309 100 C312.3 100 315.6 100 319 100 C319 100.33 319 100.66 319 101 C315.7 101 312.4 101 309 101 C309 102.65 309 104.3 309 106 C312.3 106 315.6 106 319 106 C319 106.33 319 106.66 319 107 C315.7 107 312.4 107 309 107 C309 108.65 309 110.3 309 112 C312.3 112 315.6 112 319 112 C319 112.33 319 112.66 319 113 C315.7 113 312.4 113 309 113 C309 114.65 309 116.3 309 118 C312.3 118 315.6 118 319 118 C319 118.33 319 118.66 319 119 C315.7 119 312.4 119 309 119 C309 120.65 309 122.3 309 124 C312.3 124 315.6 124 319 124 C319 124.33 319 124.66 319 125 C315.7 125 312.4 125 309 125 C309 126.65 309 128.3 309 130 C312.3 130 315.6 130 319 130 C319 130.33 319 130.66 319 131 C315.7 131 312.4 131 309 131 C309 132.65 309 134.3 309 136 C312.3 136 315.6 136 319 136 C319 136.33 319 136.66 319 137 C315.7 137 312.4 137 309 137 C309 138.65 309 140.3 309 142 C312.3 142 315.6 142 319 142 C319 142.33 319 142.66 319 143 C315.7 143 312.4 143 309 143 C309 144.65 309 146.3 309 148 C312.3 148 315.6 148 319 148 C319 148.33 319 148.66 319 149 C315.7 149 312.4 149 309 149 C309 150.65 309 152.3 309 154 C312.3 154 315.6 154 319 154 C319 154.33 319 154.66 319 155 C315.7 155 312.4 155 309 155 C309 156.65 309 158.3 309 160 C312.3 160 315.6 160 319 160 C319 160.33 319 160.66 319 161 C315.7 161 312.4 161 309 161 C309 162.65 309 164.3 309 166 C312.3 166 315.6 166 319 166 C319 166.33 319 166.66 319 167 C315.7 167 312.4 167 309 167 C309 168.65 309 170.3 309 172 C312.3 172 315.6 172 319 172 C319 172.33 319 172.66 319 173 C315.7 173 312.4 173 309 173 C309 174.65 309 176.3 309 178 C312.3 178 315.6 178 319 178 C319 178.33 319 178.66 319 179 C315.7 179 312.4 179 309 179 C309 180.65 309 182.3 309 184 C312.3 184 315.6 184 319 184 C319 184.33 319 184.66 319 185 C315.7 185 312.4 185 309 185 C309 186.65 309 188.3 309 190 C312.3 190 315.6 190 319 190 C319 190.33 319 190.66 319 191 C315.7 191 312.4 191 309 191 C309 192.65 309 194.3 309 196 C312.3 196 315.6 196 319 196 C319 196.33 319 196.66 319 197 C315.7 197 312.4 197 309 197 C309 198.65 309 200.3 309 202 C312.3 202 315.6 202 319 202 C319 202.33 319 202.66 319 203 C315.7 203 312.4 203 309 203 C309 204.65 309 206.3 309 208 C312.3 208 315.6 208 319 208 C319 208.33 319 208.66 319 209 C315.7 209 312.4 209 309 209 C309 210.65 309 212.3 309 214 C312.3 214 315.6 214 319 214 C319 214.33 319 214.66 319 215 C315.7 215 312.4 215 309 215 C309 216.65 309 218.3 309 220 C312.3 220 315.6 220 319 220 C319 220.33 319 220.66 319 221 C296.56 221 274.12 221 251 221 C250.01 218.69 249.02 216.38 248 214 C245.43220668 211.05179286 244.02556816 211.00284091 240.0625 210.5625 C237.01554786 210.69300261 235.88695392 211.06389561 233.125 212.625 C230.46510021 215.28166221 230.46510021 215.28166221 229 221 C211.84 221 194.68 221 177 221 C176.01 218.69 175.02 216.38 174 214 C171.43220668 211.05179286 170.02556816 211.00284091 166.0625 210.5625 C163.01554786 210.69300261 161.88695392 211.06389561 159.125 212.625 C156.46510021 215.28166221 156.46510021 215.28166221 155 221 C137.84 221 120.68 221 103 221 C102.01 218.69 101.02 216.38 100 214 C97.43220668 211.05179286 96.02556816 211.00284091 92.0625 210.5625 C89.01554786 210.69300261 87.88695392 211.06389561 85.125 212.625 C82.46510021 215.28166221 82.46510021 215.28166221 81 221 C54.27 221 27.54 221 0 221 C0 148.07 0 75.14 0 0 Z " fill="#FEFEFE" transform="translate(14,301)"/>
<path d="M0 0 C0.61875 0.01289063 1.2375 0.02578125 1.875 0.0390625 C2.49375 0.02617187 3.1125 0.01328125 3.75 0 C5.875 0.6640625 5.875 0.6640625 8.24609375 3.1640625 C12.85336135 7.0575342 18.31057833 6.37958018 24.0625 6.328125 C25.2383667 6.33290863 26.4142334 6.33769226 27.62573242 6.34262085 C30.10694724 6.3460169 32.58820697 6.3368354 35.06933594 6.31591797 C38.86234523 6.2891518 42.65239502 6.31567964 46.4453125 6.34765625 C48.85938152 6.3443521 51.2734487 6.33794578 53.6875 6.328125 C54.81889404 6.33824615 55.95028809 6.34836731 57.1159668 6.35879517 C63.82587162 6.34169313 63.82587162 6.34169313 69.50390625 3.1640625 C70.28636719 2.3390625 71.06882812 1.5140625 71.875 0.6640625 C74 0 74 0 75.875 0.0390625 C76.49375 0.02617187 77.1125 0.01328125 77.75 0 C79.875 0.6640625 79.875 0.6640625 82.24609375 3.1640625 C86.85336135 7.0575342 92.31057833 6.37958018 98.0625 6.328125 C99.2383667 6.33290863 100.4142334 6.33769226 101.62573242 6.34262085 C104.10694724 6.3460169 106.58820697 6.3368354 109.06933594 6.31591797 C112.86234523 6.2891518 116.65239502 6.31567964 120.4453125 6.34765625 C122.85938152 6.3443521 125.2734487 6.33794578 127.6875 6.328125 C128.81889404 6.33824615 129.95028809 6.34836731 131.1159668 6.35879517 C137.82587162 6.34169313 137.82587162 6.34169313 143.50390625 3.1640625 C144.28636719 2.3390625 145.06882812 1.5140625 145.875 0.6640625 C148 0 148 0 149.875 0.0390625 C150.49375 0.02617187 151.1125 0.01328125 151.75 0 C153.875 0.6640625 153.875 0.6640625 156.24609375 3.1640625 C160.85336135 7.0575342 166.31057833 6.37958018 172.0625 6.328125 C173.2383667 6.33290863 174.4142334 6.33769226 175.62573242 6.34262085 C178.10694724 6.3460169 180.58820697 6.3368354 183.06933594 6.31591797 C186.86234523 6.2891518 190.65239502 6.31567964 194.4453125 6.34765625 C196.85938152 6.3443521 199.2734487 6.33794578 201.6875 6.328125 C202.81889404 6.33824615 203.95028809 6.34836731 205.1159668 6.35879517 C211.82587162 6.34169313 211.82587162 6.34169313 217.50390625 3.1640625 C218.28636719 2.3390625 219.06882812 1.5140625 219.875 0.6640625 C222 0 222 0 223.875 0.0390625 C224.49375 0.02617187 225.1125 0.01328125 225.75 0 C227.875 0.6640625 227.875 0.6640625 233.875 5.6640625 C268.03 6.1590625 268.03 6.1590625 302.875 6.6640625 C302.875 83.5540625 302.875 160.4440625 302.875 239.6640625 C268.225 240.1590625 268.225 240.1590625 232.875 240.6640625 C231.885 241.6540625 230.895 242.6440625 229.875 243.6640625 C227.0625 244.0625 227.0625 244.0625 223.875 244.0390625 C222.823125 244.04679688 221.77125 244.05453125 220.6875 244.0625 C217.875 243.6640625 217.875 243.6640625 216.53881836 242.16342163 C214.18857769 240.04548923 212.571497 240.28350903 209.44140625 240.27587891 C207.77452759 240.26169418 207.77452759 240.26169418 206.07397461 240.2472229 C204.87393799 240.25329559 203.67390137 240.25936829 202.4375 240.265625 C201.20588135 240.26275482 199.9742627 240.25988464 198.70532227 240.25692749 C195.43152043 240.25436092 192.15814463 240.2664464 188.88439941 240.28320312 C186.87689615 240.28905697 184.86978631 240.28322455 182.86230469 240.27294922 C179.01218305 240.2544527 175.16264566 240.25665258 171.3125 240.265625 C169.51244507 240.25651596 169.51244507 240.25651596 167.67602539 240.2472229 C166.56477295 240.25667938 165.45352051 240.26613586 164.30859375 240.27587891 C162.83990845 240.27945908 162.83990845 240.27945908 161.34155273 240.28311157 C158.44438915 240.73056892 157.77351988 241.53186996 155.875 243.6640625 C153.0625 244.0625 153.0625 244.0625 149.875 244.0390625 C148.823125 244.04679688 147.77125 244.05453125 146.6875 244.0625 C143.875 243.6640625 143.875 243.6640625 142.53881836 242.16342163 C140.18857769 240.04548923 138.571497 240.28350903 135.44140625 240.27587891 C133.77452759 240.26169418 133.77452759 240.26169418 132.07397461 240.2472229 C130.87393799 240.25329559 129.67390137 240.25936829 128.4375 240.265625 C127.20588135 240.26275482 125.9742627 240.25988464 124.70532227 240.25692749 C121.43152043 240.25436092 118.15814463 240.2664464 114.88439941 240.28320312 C112.87689615 240.28905697 110.86978631 240.28322455 108.86230469 240.27294922 C105.01218305 240.2544527 101.16264566 240.25665258 97.3125 240.265625 C95.51244507 240.25651596 95.51244507 240.25651596 93.67602539 240.2472229 C92.56477295 240.25667938 91.45352051 240.26613586 90.30859375 240.27587891 C88.83990845 240.27945908 88.83990845 240.27945908 87.34155273 240.28311157 C84.44438915 240.73056892 83.77351988 241.53186996 81.875 243.6640625 C79.0625 244.0625 79.0625 244.0625 75.875 244.0390625 C74.823125 244.04679688 73.77125 244.05453125 72.6875 244.0625 C69.875 243.6640625 69.875 243.6640625 68.53881836 242.16342163 C66.18857769 240.04548923 64.571497 240.28350903 61.44140625 240.27587891 C59.77452759 240.26169418 59.77452759 240.26169418 58.07397461 240.2472229 C56.87393799 240.25329559 55.67390137 240.25936829 54.4375 240.265625 C53.20588135 240.26275482 51.9742627 240.25988464 50.70532227 240.25692749 C47.43152043 240.25436092 44.15814463 240.2664464 40.88439941 240.28320312 C38.87689615 240.28905697 36.86978631 240.28322455 34.86230469 240.27294922 C31.01218305 240.2544527 27.16264566 240.25665258 23.3125 240.265625 C21.51244507 240.25651596 21.51244507 240.25651596 19.67602539 240.2472229 C18.56477295 240.25667938 17.45352051 240.26613586 16.30859375 240.27587891 C14.83990845 240.27945908 14.83990845 240.27945908 13.34155273 240.28311157 C10.44438915 240.73056892 9.77351988 241.53186996 7.875 243.6640625 C5.0625 244.0625 5.0625 244.0625 1.875 244.0390625 C0.823125 244.04679688 -0.22875 244.05453125 -1.3125 244.0625 C-4.125 243.6640625 -4.125 243.6640625 -5.54299688 242.16275537 C-7.55537663 240.25635003 -8.51389205 240.28836598 -11.24954987 240.28653908 C-12.09317125 240.27871584 -12.93679263 240.27089259 -13.8059783 240.26283228 C-14.73291195 240.26952445 -15.65984561 240.27621661 -16.61486816 240.28311157 C-18.09174221 240.27609161 -18.09174221 240.27609161 -19.59845209 240.26892984 C-22.91277511 240.25691998 -26.2266892 240.26646056 -29.54101562 240.27587891 C-31.91094709 240.27181587 -34.28087666 240.26647551 -36.65080261 240.25994873 C-42.42867801 240.24766286 -48.20642245 240.24949754 -53.98430192 240.25818665 C-58.67910432 240.26495534 -63.37387394 240.26588346 -68.06867981 240.2626152 C-68.73626923 240.2621555 -69.40385865 240.26169581 -70.09167805 240.26122218 C-71.44777327 240.26026302 -72.80386847 240.25929038 -74.15996367 240.2583044 C-86.88312142 240.24974494 -99.60621437 240.25959334 -112.3293615 240.2757055 C-123.25199611 240.28910921 -134.17453508 240.28678127 -145.09716797 240.27294922 C-157.77406245 240.2569032 -170.45090011 240.25056896 -183.12780333 240.25978601 C-184.47897561 240.26074168 -185.83014789 240.26168479 -187.18132019 240.2626152 C-188.1785854 240.26330944 -188.1785854 240.26330944 -189.19599739 240.26401771 C-193.88644151 240.26661054 -198.57684966 240.2622303 -203.26728821 240.25517654 C-209.57752884 240.24653302 -215.88758824 240.25248095 -222.19780922 240.26985931 C-224.51863109 240.27383815 -226.83946813 240.2726664 -229.16028404 240.26607132 C-232.31877506 240.25792094 -235.47667864 240.26809864 -238.63513184 240.28311157 C-240.02553232 240.27307332 -240.02553232 240.27307332 -241.4440217 240.26283228 C-242.28764308 240.27065553 -243.13126447 240.27847877 -244.00045013 240.28653908 C-245.09445326 240.28726966 -245.09445326 240.28726966 -246.21055746 240.28801501 C-248.65860761 240.76887724 -249.44237434 241.8825791 -251.125 243.6640625 C-253.9375 244.0625 -253.9375 244.0625 -257.125 244.0390625 C-258.176875 244.04679688 -259.22875 244.05453125 -260.3125 244.0625 C-263.125 243.6640625 -263.125 243.6640625 -264.46118164 242.16342163 C-266.81142231 240.04548923 -268.428503 240.28350903 -271.55859375 240.27587891 C-273.22547241 240.26169418 -273.22547241 240.26169418 -274.92602539 240.2472229 C-276.12606201 240.25329559 -277.32609863 240.25936829 -278.5625 240.265625 C-279.79411865 240.26275482 -281.0257373 240.25988464 -282.29467773 240.25692749 C-285.56847957 240.25436092 -288.84185537 240.2664464 -292.11560059 240.28320312 C-294.12310385 240.28905697 -296.13021369 240.28322455 -298.13769531 240.27294922 C-301.98781695 240.2544527 -305.83735434 240.25665258 -309.6875 240.265625 C-311.48755493 240.25651596 -311.48755493 240.25651596 -313.32397461 240.2472229 C-314.43522705 240.25667938 -315.54647949 240.26613586 -316.69140625 240.27587891 C-318.16009155 240.27945908 -318.16009155 240.27945908 -319.65844727 240.28311157 C-322.55561085 240.73056892 -323.22648012 241.53186996 -325.125 243.6640625 C-327.9375 244.0625 -327.9375 244.0625 -331.125 244.0390625 C-332.176875 244.04679688 -333.22875 244.05453125 -334.3125 244.0625 C-337.125 243.6640625 -337.125 243.6640625 -338.46118164 242.16342163 C-340.81142231 240.04548923 -342.428503 240.28350903 -345.55859375 240.27587891 C-347.22547241 240.26169418 -347.22547241 240.26169418 -348.92602539 240.2472229 C-350.12606201 240.25329559 -351.32609863 240.25936829 -352.5625 240.265625 C-353.79411865 240.26275482 -355.0257373 240.25988464 -356.29467773 240.25692749 C-359.56847957 240.25436092 -362.84185537 240.2664464 -366.11560059 240.28320312 C-368.12310385 240.28905697 -370.13021369 240.28322455 -372.13769531 240.27294922 C-375.98781695 240.2544527 -379.83735434 240.25665258 -383.6875 240.265625 C-385.48755493 240.25651596 -385.48755493 240.25651596 -387.32397461 240.2472229 C-388.43522705 240.25667938 -389.54647949 240.26613586 -390.69140625 240.27587891 C-392.16009155 240.27945908 -392.16009155 240.27945908 -393.65844727 240.28311157 C-396.55561085 240.73056892 -397.22648012 241.53186996 -399.125 243.6640625 C-401.9375 244.0625 -401.9375 244.0625 -405.125 244.0390625 C-406.176875 244.04679688 -407.22875 244.05453125 -408.3125 244.0625 C-411.125 243.6640625 -411.125 243.6640625 -414.125 240.6640625 C-443.495 240.3340625 -472.865 240.0040625 -503.125 239.6640625 C-503.125 162.7740625 -503.125 85.8840625 -503.125 6.6640625 C-449.63019531 6.64279297 -449.63019531 6.64279297 -395.0546875 6.62109375 C-373.20218102 6.60165176 -351.34968603 6.58141402 -329.49718833 6.55517755 C-317.74036064 6.54107122 -305.98353267 6.52723055 -294.22670394 6.51401479 C-292.72404235 6.51232504 -291.22138076 6.51062796 -289.71871918 6.50892346 C-265.75531413 6.48180213 -241.79193509 6.47082447 -217.82851586 6.46826726 C-193.20368539 6.46555398 -168.57892032 6.44652185 -143.95412025 6.40690135 C-140.47753269 6.40131526 -137.00094487 6.39591609 -133.52435684 6.39063072 C-132.84010189 6.38958469 -132.15584694 6.38853865 -131.45085699 6.38746092 C-120.42792089 6.37109092 -109.40505011 6.37196807 -98.38210707 6.37926533 C-87.30534405 6.38623122 -76.22869471 6.37469318 -65.15196161 6.3453996 C-59.14823849 6.33006683 -53.14479323 6.32295116 -47.14106178 6.33746529 C-41.64849233 6.35056644 -36.1564627 6.34082185 -30.66395439 6.31262477 C-28.67328983 6.30648836 -26.6825778 6.3088582 -24.69193743 6.32043324 C-21.9919315 6.33490898 -19.29378451 6.31881307 -16.59388542 6.29491901 C-15.42630205 6.3122151 -15.42630205 6.3122151 -14.23513114 6.3298606 C-7.01307101 6.20330532 -6.0029129 1.87591028 0 0 Z M-497.125 12.6640625 C-497.125 85.5940625 -497.125 158.5240625 -497.125 233.6640625 C-470.395 233.6640625 -443.665 233.6640625 -416.125 233.6640625 C-415.135 231.3540625 -414.145 229.0440625 -413.125 226.6640625 C-410.55720668 223.71585536 -409.15056816 223.66690341 -405.1875 223.2265625 C-402.14054786 223.35706511 -401.01195392 223.72795811 -398.25 225.2890625 C-396.125 227.6640625 -396.125 227.6640625 -394.125 233.6640625 C-376.965 233.6640625 -359.805 233.6640625 -342.125 233.6640625 C-341.135 231.3540625 -340.145 229.0440625 -339.125 226.6640625 C-336.55720668 223.71585536 -335.15056816 223.66690341 -331.1875 223.2265625 C-328.14054786 223.35706511 -327.01195392 223.72795811 -324.25 225.2890625 C-322.125 227.6640625 -322.125 227.6640625 -320.125 233.6640625 C-302.965 233.6640625 -285.805 233.6640625 -268.125 233.6640625 C-267.135 231.3540625 -266.145 229.0440625 -265.125 226.6640625 C-262.55720668 223.71585536 -261.15056816 223.66690341 -257.1875 223.2265625 C-254.14054786 223.35706511 -253.01195392 223.72795811 -250.25 225.2890625 C-248.125 227.6640625 -248.125 227.6640625 -246.125 233.6640625 C-167.915 233.6640625 -89.705 233.6640625 -9.125 233.6640625 C-7.64 230.1990625 -7.64 230.1990625 -6.125 226.6640625 C-3.55720668 223.71585536 -2.15056816 223.66690341 1.8125 223.2265625 C4.85945214 223.35706511 5.98804608 223.72795811 8.75 225.2890625 C10.875 227.6640625 10.875 227.6640625 12.875 233.6640625 C30.035 233.6640625 47.195 233.6640625 64.875 233.6640625 C66.36 230.1990625 66.36 230.1990625 67.875 226.6640625 C70.44279332 223.71585536 71.84943184 223.66690341 75.8125 223.2265625 C78.85945214 223.35706511 79.98804608 223.72795811 82.75 225.2890625 C84.875 227.6640625 84.875 227.6640625 86.875 233.6640625 C104.035 233.6640625 121.195 233.6640625 138.875 233.6640625 C140.36 230.1990625 140.36 230.1990625 141.875 226.6640625 C144.44279332 223.71585536 145.84943184 223.66690341 149.8125 223.2265625 C152.85945214 223.35706511 153.98804608 223.72795811 156.75 225.2890625 C158.875 227.6640625 158.875 227.6640625 160.875 233.6640625 C178.035 233.6640625 195.195 233.6640625 212.875 233.6640625 C214.36 230.1990625 214.36 230.1990625 215.875 226.6640625 C218.44279332 223.71585536 219.84943184 223.66690341 223.8125 223.2265625 C226.85945214 223.35706511 227.98804608 223.72795811 230.75 225.2890625 C232.875 227.6640625 232.875 227.6640625 234.875 233.6640625 C255.665 233.6640625 276.455 233.6640625 297.875 233.6640625 C297.875 160.7340625 297.875 87.8040625 297.875 12.6640625 C277.085 12.6640625 256.295 12.6640625 234.875 12.6640625 C233.39 15.6340625 233.39 15.6340625 231.875 18.6640625 C229.27510102 21.55283915 227.8844552 21.66301192 223.9375 22.1015625 C220.84740918 21.9749666 219.78201689 21.60948546 217 19.9765625 C214.875 17.6640625 214.875 17.6640625 212.875 12.6640625 C195.715 12.6640625 178.555 12.6640625 160.875 12.6640625 C159.39 15.6340625 159.39 15.6340625 157.875 18.6640625 C155.27510102 21.55283915 153.8844552 21.66301192 149.9375 22.1015625 C146.84740918 21.9749666 145.78201689 21.60948546 143 19.9765625 C140.875 17.6640625 140.875 17.6640625 138.875 12.6640625 C121.715 12.6640625 104.555 12.6640625 86.875 12.6640625 C85.39 15.6340625 85.39 15.6340625 83.875 18.6640625 C81.27510102 21.55283915 79.8844552 21.66301192 75.9375 22.1015625 C72.84740918 21.9749666 71.78201689 21.60948546 69 19.9765625 C66.875 17.6640625 66.875 17.6640625 64.875 12.6640625 C47.715 12.6640625 30.555 12.6640625 12.875 12.6640625 C11.39 15.6340625 11.39 15.6340625 9.875 18.6640625 C7.27510102 21.55283915 5.8844552 21.66301192 1.9375 22.1015625 C-1.15259082 21.9749666 -2.21798311 21.60948546 -5 19.9765625 C-7.125 17.6640625 -7.125 17.6640625 -9.125 12.6640625 C-64.565 12.6640625 -120.005 12.6640625 -177.125 12.6640625 C-177.125 13.9840625 -177.125 15.3040625 -177.125 16.6640625 C-180.755 16.6640625 -184.385 16.6640625 -188.125 16.6640625 C-188.125 15.3440625 -188.125 14.0240625 -188.125 12.6640625 C-290.095 12.6640625 -392.065 12.6640625 -497.125 12.6640625 Z " fill="#058105" transform="translate(511.125,288.3359375)"/>
<path d="M0 0 C1.17369141 1.2375 1.17369141 1.2375 2.37109375 2.5 C6.97836135 6.3934717 12.43557833 5.71551768 18.1875 5.6640625 C19.3633667 5.66884613 20.5392334 5.67362976 21.75073242 5.67855835 C24.23194724 5.6819544 26.71320697 5.6727729 29.19433594 5.65185547 C32.98734523 5.6250893 36.77739502 5.65161714 40.5703125 5.68359375 C42.98438152 5.6802896 45.3984487 5.67388328 47.8125 5.6640625 C48.94389404 5.67418365 50.07528809 5.68430481 51.2409668 5.69473267 C57.95087162 5.67763063 57.95087162 5.67763063 63.62890625 2.5 C64.41136719 1.675 65.19382812 0.85 66 0 C68.125 -0.6640625 68.125 -0.6640625 70 -0.625 C70.61875 -0.63789063 71.2375 -0.65078125 71.875 -0.6640625 C74 0 74 0 76.37109375 2.5 C80.97836135 6.3934717 86.43557833 5.71551768 92.1875 5.6640625 C93.3633667 5.66884613 94.5392334 5.67362976 95.75073242 5.67855835 C98.23194724 5.6819544 100.71320697 5.6727729 103.19433594 5.65185547 C106.98734523 5.6250893 110.77739502 5.65161714 114.5703125 5.68359375 C116.98438152 5.6802896 119.3984487 5.67388328 121.8125 5.6640625 C122.94389404 5.67418365 124.07528809 5.68430481 125.2409668 5.69473267 C131.95087162 5.67763063 131.95087162 5.67763063 137.62890625 2.5 C138.41136719 1.675 139.19382812 0.85 140 0 C142.125 -0.6640625 142.125 -0.6640625 144 -0.625 C144.61875 -0.63789063 145.2375 -0.65078125 145.875 -0.6640625 C148 0 148 0 150.37109375 2.5 C154.97836135 6.3934717 160.43557833 5.71551768 166.1875 5.6640625 C167.3633667 5.66884613 168.5392334 5.67362976 169.75073242 5.67855835 C172.23194724 5.6819544 174.71320697 5.6727729 177.19433594 5.65185547 C180.98734523 5.6250893 184.77739502 5.65161714 188.5703125 5.68359375 C190.98438152 5.6802896 193.3984487 5.67388328 195.8125 5.6640625 C196.94389404 5.67418365 198.07528809 5.68430481 199.2409668 5.69473267 C205.95087162 5.67763063 205.95087162 5.67763063 211.62890625 2.5 C212.41136719 1.675 213.19382812 0.85 214 0 C216.125 -0.6640625 216.125 -0.6640625 218 -0.625 C218.61875 -0.63789063 219.2375 -0.65078125 219.875 -0.6640625 C222 0 222 0 228 5 C262.155 5.495 262.155 5.495 297 6 C297 82.89 297 159.78 297 239 C262.35 239.495 262.35 239.495 227 240 C226.01 240.99 225.02 241.98 224 243 C219.43884829 243.83816036 214.25438421 244.26635162 210.1015625 241.93359375 C207.62201857 239.30355727 206.65844898 236.50936833 206.375 233 C206.65970653 228.36462181 208.74721616 226.17533661 212 223 C215.23752415 221.38123792 218.50063034 221.42867434 222 222 C224.73698148 223.35969958 225.88530966 224.62742059 228 227 C228.33 228.98 228.66 230.96 229 233 C249.79 233 270.58 233 292 233 C292 160.07 292 87.14 292 12 C271.21 12 250.42 12 229 12 C228.67 13.65 228.34 15.3 228 17 C224.87721412 20.42744792 222.69145167 22.3098353 218 22.625 C213.30854833 22.3098353 211.12278588 20.42744792 208 17 C207.67 15.35 207.34 13.7 207 12 C189.84 12 172.68 12 155 12 C154.67 13.65 154.34 15.3 154 17 C150.87721412 20.42744792 148.69145167 22.3098353 144 22.625 C139.30854833 22.3098353 137.12278588 20.42744792 134 17 C133.67 15.35 133.34 13.7 133 12 C115.84 12 98.68 12 81 12 C80.67 13.65 80.34 15.3 80 17 C76.87721412 20.42744792 74.69145167 22.3098353 70 22.625 C65.30854833 22.3098353 63.12278588 20.42744792 60 17 C59.67 15.35 59.34 13.7 59 12 C41.84 12 24.68 12 7 12 C6.67 13.65 6.34 15.3 6 17 C2.87721412 20.42744792 0.69145167 22.3098353 -4 22.625 C-8.69145167 22.3098353 -10.87721412 20.42744792 -14 17 C-14.33 15.35 -14.66 13.7 -15 12 C-70.44 12 -125.88 12 -183 12 C-183 13.32 -183 14.64 -183 16 C-186.63 16 -190.26 16 -194 16 C-194 14.68 -194 13.36 -194 12 C-295.97 12 -397.94 12 -503 12 C-503 84.93 -503 157.86 -503 233 C-476.27 233 -449.54 233 -422 233 C-422 233.33 -422 233.66 -422 234 C-449.06 234 -476.12 234 -504 234 C-504 160.41 -504 86.82 -504 11 C-342.63 11 -181.26 11 -15 11 C-14.67 9.02 -14.34 7.04 -14 5 C-10.06971927 0.59041674 -5.97828044 -1.86821264 0 0 Z " fill="#158215" transform="translate(517,289)"/>
<path d="M0 0 C163.35 0 326.7 0 495 0 C494.67 1.65 494.34 3.3 494 5 C332.63 5 171.26 5 5 5 C5 78.59 5 152.18 5 228 C32.06 228 59.12 228 87 228 C87.495 230.475 87.495 230.475 88 233 C58.96 233 29.92 233 0 233 C0 156.11 0 79.22 0 0 Z " fill="#000000" transform="translate(8,295)"/>
<path d="M0 0 C22.77 0 45.54 0 69 0 C69 76.89 69 153.78 69 233 C46.23 233 23.46 233 0 233 C0.33 231.35 0.66 229.7 1 228 C22.12 228 43.24 228 65 228 C65 154.41 65 80.82 65 5 C43.88 5 22.76 5 1 5 C0.67 3.35 0.34 1.7 0 0 Z " fill="#000000" transform="translate(745,295)"/>
<path d="M0 0 C2.73698148 1.35969958 3.88530966 2.62742059 6 5 C6.33 6.98 6.66 8.96 7 11 C24.16 11 41.32 11 59 11 C59.33 9.02 59.66 7.04 60 5 C63.10843518 1.51248735 65.28603896 -0.29927524 70 -0.625 C74.71396104 -0.29927524 76.89156482 1.51248735 80 5 C80.495 7.97 80.495 7.97 81 11 C98.16 11 115.32 11 133 11 C133.33 12.98 133.66 14.96 134 17 C132.97642647 17.00879936 132.97642647 17.00879936 131.93217468 17.01777649 C124.84326015 17.0816067 117.75480398 17.16599941 110.66625977 17.26245117 C108.01918574 17.29574872 105.37203989 17.32376542 102.72485352 17.34643555 C98.9243299 17.37989211 95.12446745 17.43220486 91.32421875 17.48828125 C89.54285774 17.49786613 89.54285774 17.49786613 87.72550964 17.50764465 C86.62459488 17.52743881 85.52368011 17.54723297 84.3894043 17.56762695 C83.41899704 17.57873001 82.44858978 17.58983307 81.44877625 17.60127258 C78.57509575 18.06918598 77.89080793 18.884749 76 21 C73.1875 21.3984375 73.1875 21.3984375 70 21.375 C68.948125 21.38273438 67.89625 21.39046875 66.8125 21.3984375 C64 21 64 21 62.66381836 19.49935913 C60.31357769 17.38142673 58.696497 17.61944653 55.56640625 17.61181641 C53.89952759 17.59763168 53.89952759 17.59763168 52.19897461 17.5831604 C50.39891968 17.59226944 50.39891968 17.59226944 48.5625 17.6015625 C47.33088135 17.59869232 46.0992627 17.59582214 44.83032227 17.59286499 C41.55652043 17.59029842 38.28314463 17.6023839 35.00939941 17.61914062 C33.00189615 17.62499447 30.99478631 17.61916205 28.98730469 17.60888672 C25.13718305 17.5903902 21.28764566 17.59259008 17.4375 17.6015625 C16.23746338 17.59548981 15.03742676 17.58941711 13.80102539 17.5831604 C12.68977295 17.59261688 11.57852051 17.60207336 10.43359375 17.61181641 C8.96490845 17.61539658 8.96490845 17.61539658 7.46655273 17.61904907 C4.57030055 18.06636566 3.89096146 18.85992907 2 21 C-2.56115171 21.83816036 -7.74561579 22.26635162 -11.8984375 19.93359375 C-14.37798143 17.30355727 -15.34155102 14.50936833 -15.625 11 C-15.34029347 6.36462181 -13.25278384 4.17533661 -10 1 C-6.76247585 -0.61876208 -3.49936966 -0.57132566 0 0 Z " fill="#148114" transform="translate(110,511)"/>
<path d="M0 0 C78.21 0 156.42 0 237 0 C237.33 1.65 237.66 3.3 238 5 C159.13 5 80.26 5 -1 5 C-0.67 3.35 -0.34 1.7 0 0 Z " fill="#000000" transform="translate(265,523)"/>
<path d="M0 0 C2.7214572 1.38717905 3.88389163 2.62582963 6 5 C6.495 7.97 6.495 7.97 7 11 C24.16 11 41.32 11 59 11 C59.495 13.97 59.495 13.97 60 17 C58.97642647 17.00879936 58.97642647 17.00879936 57.93217468 17.01777649 C50.84326015 17.0816067 43.75480398 17.16599941 36.66625977 17.26245117 C34.01918574 17.29574872 31.37203989 17.32376542 28.72485352 17.34643555 C24.9243299 17.37989211 21.12446745 17.43220486 17.32421875 17.48828125 C15.54285774 17.49786613 15.54285774 17.49786613 13.72550964 17.50764465 C12.62459488 17.52743881 11.52368011 17.54723297 10.3894043 17.56762695 C9.41899704 17.57873001 8.44858978 17.58983307 7.44877625 17.60127258 C4.57509575 18.06918598 3.89080793 18.884749 2 21 C-0.8125 21.3984375 -0.8125 21.3984375 -4 21.375 C-5.051875 21.38273438 -6.10375 21.39046875 -7.1875 21.3984375 C-10 21 -10 21 -11.33894348 19.50212097 C-13.67234711 17.39198536 -15.27573558 17.60325245 -18.3894043 17.56762695 C-19.49031906 17.54783279 -20.59123383 17.52803864 -21.72550964 17.50764465 C-22.91308365 17.50125473 -24.10065765 17.49486481 -25.32421875 17.48828125 C-26.54075638 17.47033005 -27.75729401 17.45237885 -29.01069641 17.43388367 C-32.90292883 17.37962603 -36.79503754 17.3458345 -40.6875 17.3125 C-43.32358498 17.27934068 -45.95965361 17.24485234 -48.59570312 17.20898438 C-55.06369116 17.12389054 -61.53169491 17.05560613 -68 17 C-67.67 15.35 -67.34 13.7 -67 12 C-49.84 12 -32.68 12 -15 12 C-14.67 9.69 -14.34 7.38 -14 5 C-9.93708692 0.34251427 -6.17780031 -1.52295674 0 0 Z " fill="#148114" transform="translate(665,511)"/>
<path d="M0 0 C161.37 0 322.74 0 489 0 C489 0.33 489 0.66 489 1 C433.56 1 378.12 1 321 1 C321 2.32 321 3.64 321 5 C317.37 5 313.74 5 310 5 C310 3.68 310 2.36 310 1 C208.03 1 106.06 1 1 1 C1 73.93 1 146.86 1 222 C27.73 222 54.46 222 82 222 C82 222.33 82 222.66 82 223 C54.94 223 27.88 223 0 223 C0 149.41 0 75.82 0 0 Z " fill="#7F7F7F" transform="translate(13,300)"/>
<path d="M0 0 C21.12 0 42.24 0 64 0 C64 73.59 64 147.18 64 223 C42.88 223 21.76 223 0 223 C-0.33 224.65 -0.66 226.3 -1 228 C-3.13185599 230.86545078 -4.32413795 231.85683252 -7.83984375 232.6015625 C-15.82820448 232.66200407 -15.82820448 232.66200407 -18.89453125 230.9296875 C-21.38183723 228.30618897 -22.34160384 225.50871434 -22.625 222 C-22.34029347 217.36462181 -20.25278384 215.17533661 -17 212 C-13.76247585 210.38123792 -10.49936966 210.42867434 -7 211 C-4.26301852 212.35969958 -3.11469034 213.62742059 -1 216 C-0.67 217.98 -0.34 219.96 0 222 C20.79 222 41.58 222 63 222 C63 149.07 63 76.14 63 1 C42.21 1 21.42 1 0 1 C0 0.67 0 0.34 0 0 Z " fill="#418241" transform="translate(746,300)"/>
<path d="M0 0 C5.557986 0.11579137 7.99397752 1.68838093 11.875 5.6640625 C13.48929923 8.89266097 13.47070657 12.17399903 12.875 15.6640625 C11.13897895 18.68914395 9.03919863 21.08196319 5.875 22.6640625 C1.28351413 23.12321109 -1.79479448 23.38536788 -5.5625 20.5390625 C-8.125 17.6640625 -8.125 17.6640625 -9.125 11.6640625 C-26.285 11.6640625 -43.445 11.6640625 -61.125 11.6640625 C-61.455 10.0140625 -61.785 8.3640625 -62.125 6.6640625 C-61.46180756 6.66263748 -60.79861511 6.66121246 -60.11532593 6.65974426 C-53.20423173 6.64003715 -46.29401955 6.58574089 -39.38330078 6.51147461 C-36.80524018 6.48829702 -34.22708492 6.4738995 -31.64892578 6.46850586 C-27.93982977 6.45921525 -24.23222218 6.41821738 -20.5234375 6.37109375 C-19.37322113 6.3750264 -18.22300476 6.37895905 -17.03793335 6.38301086 C-10.24145817 6.35914576 -10.24145817 6.35914576 -4.48291016 3.16137695 C-2.125 0.6640625 -2.125 0.6640625 0 0 Z " fill="#078307" transform="translate(733.125,288.3359375)"/>
<path d="M0 0 C2.73698148 1.35969958 3.88530966 2.62742059 6 5 C6.33 6.98 6.66 8.96 7 11 C85.21 11 163.42 11 244 11 C244 11.33 244 11.66 244 12 C165.79 12 87.58 12 7 12 C6.67 13.65 6.34 15.3 6 17 C3.86814401 19.86545078 2.67586205 20.85683252 -0.83984375 21.6015625 C-8.82820448 21.66200407 -8.82820448 21.66200407 -11.89453125 19.9296875 C-14.38183723 17.30618897 -15.34160384 14.50871434 -15.625 11 C-15.34029347 6.36462181 -13.25278384 4.17533661 -10 1 C-6.76247585 -0.61876208 -3.49936966 -0.57132566 0 0 Z " fill="#348134" transform="translate(258,511)"/>
<path d="M0 0 C2.7214572 1.38717905 3.88389163 2.62582963 6 5 C6.495 7.97 6.495 7.97 7 11 C24.16 11 41.32 11 59 11 C59 11.33 59 11.66 59 12 C41.84 12 24.68 12 7 12 C6.67 13.65 6.34 15.3 6 17 C3.86814401 19.86545078 2.67586205 20.85683252 -0.83984375 21.6015625 C-8.99162488 21.66324054 -8.99162488 21.66324054 -11.89453125 19.75390625 C-14.14006829 17.15891964 -15 15.44256342 -15 12 C-32.16 12 -49.32 12 -67 12 C-67 11.67 -67 11.34 -67 11 C-49.84 11 -32.68 11 -15 11 C-14.67 9.02 -14.34 7.04 -14 5 C-9.88635586 0.38469194 -6.1932252 -1.52675929 0 0 Z " fill="#1F811F" transform="translate(591,511)"/>
<path d="M0 0 C2.73698148 1.35969958 3.88530966 2.62742059 6 5 C6.33 6.98 6.66 8.96 7 11 C24.16 11 41.32 11 59 11 C59 11.33 59 11.66 59 12 C41.84 12 24.68 12 7 12 C6.67 13.65 6.34 15.3 6 17 C2.87721412 20.42744792 0.69145167 22.3098353 -4 22.625 C-8.63537819 22.34029347 -10.82466339 20.25278384 -14 17 C-15.61429923 13.77140153 -15.59570657 10.49006347 -15 7 C-11.45582958 0.8241508 -6.98036435 -1.13965132 0 0 Z " fill="#158215" transform="translate(665,289)"/>
<path d="M0 0 C17.16 0 34.32 0 52 0 C52.495 2.475 52.495 2.475 53 5 C35.18 5 17.36 5 -1 5 C-0.67 3.35 -0.34 1.7 0 0 Z " fill="#000000" transform="translate(672,523)"/>
<path d="M0 0 C17.16 0 34.32 0 52 0 C52.495 2.475 52.495 2.475 53 5 C35.18 5 17.36 5 -1 5 C-0.67 3.35 -0.34 1.7 0 0 Z " fill="#000000" transform="translate(598,523)"/>
<path d="M0 0 C17.16 0 34.32 0 52 0 C52.495 2.475 52.495 2.475 53 5 C35.18 5 17.36 5 -1 5 C-0.67 3.35 -0.34 1.7 0 0 Z " fill="#000000" transform="translate(524,523)"/>
<path d="M0 0 C17.16 0 34.32 0 52 0 C52.495 2.475 52.495 2.475 53 5 C35.18 5 17.36 5 -1 5 C-0.67 3.35 -0.34 1.7 0 0 Z " fill="#000000" transform="translate(191,523)"/>
<path d="M0 0 C17.16 0 34.32 0 52 0 C52.495 2.475 52.495 2.475 53 5 C35.18 5 17.36 5 -1 5 C-0.67 3.35 -0.34 1.7 0 0 Z " fill="#000000" transform="translate(117,523)"/>
<path d="M0 0 C17.82 0 35.64 0 54 0 C53.67 1.65 53.34 3.3 53 5 C35.84 5 18.68 5 1 5 C0.67 3.35 0.34 1.7 0 0 Z " fill="#000000" transform="translate(671,295)"/>
<path d="M0 0 C17.82 0 35.64 0 54 0 C53.67 1.65 53.34 3.3 53 5 C35.84 5 18.68 5 1 5 C0.67 3.35 0.34 1.7 0 0 Z " fill="#000000" transform="translate(597,295)"/>
<path d="M0 0 C17.82 0 35.64 0 54 0 C53.67 1.65 53.34 3.3 53 5 C35.84 5 18.68 5 1 5 C0.67 3.35 0.34 1.7 0 0 Z " fill="#000000" transform="translate(523,295)"/>
<path d="M0 0 C0.66 0 1.32 0 2 0 C2 0.99 2 1.98 2 3 C5.03706609 3.07062944 7.71905141 3.06533688 10.6875 2.375 C13 2 13 2 16 4 C15.814375 4.969375 15.62875 5.93875 15.4375 6.9375 C15.293125 7.948125 15.14875 8.95875 15 10 C15.33 10.33 15.66 10.66 16 11 C16.1875 13.4375 16.1875 13.4375 16 16 C14 18 14 18 11 18.1875 C8 18 8 18 6 17 C6 16.34 6 15.68 6 15 C5.195625 15.020625 4.39125 15.04125 3.5625 15.0625 C1 15 1 15 0 14 C-0.26169347 12.40366983 -0.46007377 10.79670875 -0.625 9.1875 C-0.72039063 8.31480469 -0.81578125 7.44210937 -0.9140625 6.54296875 C-0.9961813 4.11299888 -0.7204342 2.30646472 0 0 Z " fill="#BFBFBF" transform="translate(742,329)"/>
<path d="M0 0 C2.22992638 1.68694195 2.91874747 2.56152913 3.43359375 5.33984375 C3.44403416 12.28271405 3.44403416 12.28271405 1.375 15.625 C-1.72904866 17.42208081 -3.46656253 17.58890625 -7 17 C-9.375 15.625 -9.375 15.625 -11 13 C-11.61324151 9.54980012 -11.65714444 6.4457226 -11 3 C-7.65272957 -1.2333126 -5.04643619 -1.64557702 0 0 Z " fill="#F8F8F8" transform="translate(665,404)"/>
<path d="M0 0 C2.22992638 1.68694195 2.91874747 2.56152913 3.43359375 5.33984375 C3.44403416 12.28271405 3.44403416 12.28271405 1.375 15.625 C-1.72904866 17.42208081 -3.46656253 17.58890625 -7 17 C-9.375 15.625 -9.375 15.625 -11 13 C-11.61324151 9.54980012 -11.65714444 6.4457226 -11 3 C-7.65272957 -1.2333126 -5.04643619 -1.64557702 0 0 Z " fill="#F8F8F8" transform="translate(591,404)"/>
<path d="M0 0 C2.63662075 0.85690174 3.75689748 1.70242853 5.5 3.8125 C6.056875 3.131875 6.61375 2.45125 7.1875 1.75 C8.3321875 0.7909375 8.3321875 0.7909375 9.5 -0.1875 C12.25 0.0625 12.25 0.0625 14.5 0.8125 C14.5 1.1425 14.5 1.4725 14.5 1.8125 C12.52 1.8125 10.54 1.8125 8.5 1.8125 C8.5 2.8025 8.5 3.7925 8.5 4.8125 C10.81 5.4725 13.12 6.1325 15.5 6.8125 C14.625 10.6875 14.625 10.6875 13.5 11.8125 C9.93264046 11.97104931 6.93737738 11.70367191 3.5 10.8125 C3.17 11.1425 2.84 11.4725 2.5 11.8125 C-0.375 12.125 -0.375 12.125 -3.5 11.8125 C-5.4375 10.1875 -5.4375 10.1875 -6.5 7.8125 C-6.375 4.6875 -6.375 4.6875 -5.5 1.8125 C-2.5 -0.1875 -2.5 -0.1875 0 0 Z " fill="#AEAEAE" transform="translate(98.5,466.1875)"/>
<path d="M0 0 C0.99 0 1.98 0 3 0 C3.33 2.97 3.66 5.94 4 9 C5.32 7.68 6.64 6.36 8 5 C8.66 5.33 9.32 5.66 10 6 C9.01 7.32 8.02 8.64 7 10 C8.98 12.97 8.98 12.97 11 16 C7.125 14.25 7.125 14.25 6 12 C5.01 11.67 4.02 11.34 3 11 C3 12.65 3 14.3 3 16 C2.38125 15.814375 1.7625 15.62875 1.125 15.4375 C-1.04160178 14.76313824 -1.04160178 14.76313824 -3 16 C-5.9375 16.3125 -5.9375 16.3125 -9 16 C-10.9375 14.375 -10.9375 14.375 -12 12 C-11.875 8.875 -11.875 8.875 -11 6 C-8 4 -8 4 -5.4375 4.3125 C-3 5 -3 5 -1 6 C-0.67 4.02 -0.34 2.04 0 0 Z " fill="#F2F2F2" transform="translate(272,462)"/>
<path d="M0 0 C4.45144991 1.5483304 4.45144991 1.5483304 5.875 4 C6.63412409 10.83211679 6.63412409 10.83211679 4.25 14.5 C1.15359404 16.45562482 -0.52353135 16.60024477 -4.125 16 C-6.5 14.4375 -6.5 14.4375 -8.125 12 C-8.85572741 7.53444362 -8.63261596 5.7166343 -6 2 C-3.125 0 -3.125 0 0 0 Z " fill="#B1B1B1" transform="translate(720.125,328)"/>
<path d="M0 0 C4.45144991 1.5483304 4.45144991 1.5483304 5.875 4 C6.63412409 10.83211679 6.63412409 10.83211679 4.25 14.5 C1.15359404 16.45562482 -0.52353135 16.60024477 -4.125 16 C-6.5 14.4375 -6.5 14.4375 -8.125 12 C-8.85572741 7.53444362 -8.63261596 5.7166343 -6 2 C-3.125 0 -3.125 0 0 0 Z " fill="#B0B0B0" transform="translate(646.125,328)"/>
<path d="M0 0 C4.45144991 1.5483304 4.45144991 1.5483304 5.875 4 C6.63412409 10.83211679 6.63412409 10.83211679 4.25 14.5 C1.15359404 16.45562482 -0.52353135 16.60024477 -4.125 16 C-6.5 14.4375 -6.5 14.4375 -8.125 12 C-8.85572741 7.53444362 -8.63261596 5.7166343 -6 2 C-3.125 0 -3.125 0 0 0 Z " fill="#B0B0B0" transform="translate(573.125,328)"/>
<path d="M0 0 C4.45144991 1.5483304 4.45144991 1.5483304 5.875 4 C6.63412409 10.83211679 6.63412409 10.83211679 4.25 14.5 C1.15359404 16.45562482 -0.52353135 16.60024477 -4.125 16 C-6.5 14.4375 -6.5 14.4375 -8.125 12 C-8.85572741 7.53444362 -8.63261596 5.7166343 -6 2 C-3.125 0 -3.125 0 0 0 Z " fill="#B0B0B0" transform="translate(497.125,328)"/>
<path d="M0 0 C0.33 1.32 0.66 2.64 1 4 C2.216875 3.649375 3.43375 3.29875 4.6875 2.9375 C8.12086896 2.06543648 10.55349859 1.92296831 14 3 C14.33 4.65 14.66 6.3 15 8 C14.030625 8.61875 13.06125 9.2375 12.0625 9.875 C8.97164638 11.65678846 8.97164638 11.65678846 8 14 C10.31 14 12.62 14 15 14 C15 14.33 15 14.66 15 15 C10.05 15 5.1 15 0 15 C0 11.7 0 8.4 0 5 C-0.66 4.67 -1.32 4.34 -2 4 C-1.34 4 -0.68 4 0 4 C0 2.68 0 1.36 0 0 Z " fill="#AEAEAE" transform="translate(669,329)"/>
<path d="M0 0 C0.33 1.32 0.66 2.64 1 4 C4.3 3.67 7.6 3.34 11 3 C11 6.63 11 10.26 11 14 C11.99 14.33 12.98 14.66 14 15 C9.38 15 4.76 15 0 15 C0 11.7 0 8.4 0 5 C-0.66 4.67 -1.32 4.34 -2 4 C-1.34 4 -0.68 4 0 4 C0 2.68 0 1.36 0 0 Z " fill="#B3B3B3" transform="translate(596,329)"/>
<path d="M0 0 C8 0 8 0 11 2 C11.43132515 6.05445642 11.30019361 7.54970958 9 11 C9.99 12.65 10.98 14.3 12 16 C10.0625 15.25 10.0625 15.25 8 14 C7.25 11.875 7.25 11.875 7 10 C5.35 10 3.7 10 2 10 C2 11.98 2 13.96 2 16 C1.34 16 0.68 16 0 16 C0 10.72 0 5.44 0 0 Z " fill="#3B3B3B" transform="translate(79,462)"/>
<path d="M0 0 C1.875 1.5625 1.875 1.5625 3 4 C2.67272727 10.32727273 2.67272727 10.32727273 0 13 C-3.5625 12.75 -3.5625 12.75 -7 12 C-8.52491998 8.95016004 -8.23562548 6.3576631 -8 3 C-5.96513637 -0.32004065 -3.73886079 -0.65430064 0 0 Z " fill="#A1A1A1" transform="translate(525,479)"/>
<path d="M0 0 C1.8125 1.125 1.8125 1.125 3 3 C3.42888292 6.35958291 3.33264845 8.3347031 1.8125 11.375 C0 13 0 13 -2.5 13.4375 C-5 13 -5 13 -6.8125 11.9375 C-8.67036623 8.90624457 -8.37133265 6.46577141 -8 3 C-5.95177941 -0.34183359 -3.7548828 -0.56323242 0 0 Z " fill="#A0A0A0" transform="translate(534,331)"/>
<path d="M0 0 C2 2 2 2 2.3125 4.9375 C2 8 2 8 0.9375 9.9375 C-2.18142449 11.64787795 -4.65557801 10.80513863 -8 10 C-9.41441874 7.17116253 -9.31900332 5.12623255 -9 2 C-6.12524616 -1.3006433 -4.03854228 -1.38160657 0 0 Z " fill="#9E9E9E" transform="translate(256,467)"/>
<path d="M0 0 C2.22992638 1.68694195 2.91874747 2.56152913 3.43359375 5.33984375 C3.44403416 12.28271405 3.44403416 12.28271405 1.375 15.625 C-1.72904866 17.42208081 -3.46656253 17.58890625 -7 17 C-9.375 15.625 -9.375 15.625 -11 13 C-11.61324151 9.54980012 -11.65714444 6.4457226 -11 3 C-7.65272957 -1.2333126 -5.04643619 -1.64557702 0 0 Z M-7.75 2 C-9.69529889 5.11247823 -9.5552232 8.42349732 -9 12 C-8.01 13.485 -8.01 13.485 -7 15 C-4 15.41666667 -4 15.41666667 -1 15 C1.41486943 12.58513057 1.2961925 11.87292211 1.3125 8.5625 C1.32925781 7.78003906 1.34601562 6.99757813 1.36328125 6.19140625 C1.1548522 3.94152949 1.1548522 3.94152949 -0.26953125 2.21484375 C-2.83784326 0.41180755 -5.03626694 0.44929539 -7.75 2 Z " fill="#1B1B1B" transform="translate(591,404)"/>
<path d="M0 0 C2.22992638 1.68694195 2.91874747 2.56152913 3.43359375 5.33984375 C3.44403416 12.28271405 3.44403416 12.28271405 1.375 15.625 C-1.72904866 17.42208081 -3.46656253 17.58890625 -7 17 C-9.375 15.625 -9.375 15.625 -11 13 C-11.61324151 9.54980012 -11.65714444 6.4457226 -11 3 C-7.65272957 -1.2333126 -5.04643619 -1.64557702 0 0 Z M-7.75 2 C-9.69529889 5.11247823 -9.5552232 8.42349732 -9 12 C-8.01 13.485 -8.01 13.485 -7 15 C-4 15.41666667 -4 15.41666667 -1 15 C1.41486943 12.58513057 1.2961925 11.87292211 1.3125 8.5625 C1.32925781 7.78003906 1.34601562 6.99757813 1.36328125 6.19140625 C1.1548522 3.94152949 1.1548522 3.94152949 -0.26953125 2.21484375 C-2.83784326 0.41180755 -5.03626694 0.44929539 -7.75 2 Z " fill="#282828" transform="translate(665,404)"/>
<path d="M0 0 C2.68031126 0.87110116 3.8469899 1.55048618 5.5 3.8125 C5.5 4.8025 5.5 5.7925 5.5 6.8125 C2.2 6.8125 -1.1 6.8125 -4.5 6.8125 C-3.51 8.2975 -3.51 8.2975 -2.5 9.8125 C0.965 9.3175 0.965 9.3175 4.5 8.8125 C3.51 10.2975 3.51 10.2975 2.5 11.8125 C-0.4375 12.25 -0.4375 12.25 -3.5 11.8125 C-5.4375 10.1875 -5.4375 10.1875 -6.5 7.8125 C-6.375 4.6875 -6.375 4.6875 -5.5 1.8125 C-2.5 -0.1875 -2.5 -0.1875 0 0 Z " fill="#3E3E3E" transform="translate(98.5,466.1875)"/>
<path d="M0 0 C0.74765625 0.40992188 1.4953125 0.81984375 2.265625 1.2421875 C3.74289062 2.05042969 3.74289062 2.05042969 5.25 2.875 C6.71179688 3.67550781 6.71179688 3.67550781 8.203125 4.4921875 C10.45130408 5.70419466 12.7072805 6.87547567 15 8 C15 8.99 15 9.98 15 11 C10.38 13.64 5.76 16.28 1 19 C0.67 18.01 0.34 17.02 0 16 C3.3 14.02 6.6 12.04 10 10 C7.46645962 7.90078083 5.06949097 6.0386061 2.1875 4.4375 C1.465625 3.963125 0.74375 3.48875 0 3 C0 2.01 0 1.02 0 0 Z " fill="#181818" transform="translate(451,404)"/>
<path d="M0 0 C0.74765625 0.40992188 1.4953125 0.81984375 2.265625 1.2421875 C3.74289062 2.05042969 3.74289062 2.05042969 5.25 2.875 C6.71179688 3.67550781 6.71179688 3.67550781 8.203125 4.4921875 C10.45130408 5.70419466 12.7072805 6.87547567 15 8 C15 8.99 15 9.98 15 11 C10.38 13.64 5.76 16.28 1 19 C0.67 18.01 0.34 17.02 0 16 C3.3 14.02 6.6 12.04 10 10 C7.46645962 7.90078083 5.06949097 6.0386061 2.1875 4.4375 C1.465625 3.963125 0.74375 3.48875 0 3 C0 2.01 0 1.02 0 0 Z " fill="#181818" transform="translate(432,404)"/>
<path d="M0 0 C12.39304813 6.08823529 12.39304813 6.08823529 15 8 C15 8.99 15 9.98 15 11 C10.38 13.64 5.76 16.28 1 19 C0.67 18.01 0.34 17.02 0 16 C3.3 14.02 6.6 12.04 10 10 C7.62651678 7.62651678 6.13437609 6.35654541 3.3125 4.8125 C2.219375 4.214375 1.12625 3.61625 0 3 C0 2.01 0 1.02 0 0 Z " fill="#171717" transform="translate(413,404)"/>
<path d="M0 0 C2 2 2 2 2 6 C-2.455 6.495 -2.455 6.495 -7 7 C-7 7.66 -7 8.32 -7 9 C-4.03 9.495 -4.03 9.495 -1 10 C-1 10.33 -1 10.66 -1 11 C-3.3431213 10.74438677 -5.67843403 10.40729228 -8 10 C-9.41441874 7.17116253 -9.31900332 5.12623255 -9 2 C-6.12524616 -1.3006433 -4.03854228 -1.38160657 0 0 Z " fill="#343434" transform="translate(125,467)"/>
<path d="M0 0 C0 4.95 0 9.9 0 15 C1.32 15 2.64 15 4 15 C4 15.66 4 16.32 4 17 C0.7 17 -2.6 17 -6 17 C-6 16.34 -6 15.68 -6 15 C-4.68 15 -3.36 15 -2 15 C-2 11.04 -2 7.08 -2 3 C-3.65 3.33 -5.3 3.66 -7 4 C-3.375 0 -3.375 0 0 0 Z " fill="#1D1D1D" transform="translate(737,404)"/>
<path d="M0 0 C0 4.95 0 9.9 0 15 C1.32 15 2.64 15 4 15 C4 15.66 4 16.32 4 17 C0.7 17 -2.6 17 -6 17 C-6 16.34 -6 15.68 -6 15 C-4.68 15 -3.36 15 -2 15 C-2 11.04 -2 7.08 -2 3 C-3.65 3.33 -5.3 3.66 -7 4 C-3.375 0 -3.375 0 0 0 Z " fill="#1C1C1C" transform="translate(515,404)"/>
<path d="M0 0 C3.63 0 7.26 0 11 0 C11 1.65 11 3.3 11 5 C7.37 5 3.74 5 0 5 C0 3.35 0 1.7 0 0 Z " fill="#767676" transform="translate(323,516)"/>
<path d="M0 0 C3.63 0 7.26 0 11 0 C11 1.65 11 3.3 11 5 C7.37 5 3.74 5 0 5 C0 3.35 0 1.7 0 0 Z " fill="#767676" transform="translate(323,510)"/>
<path d="M0 0 C3.63 0 7.26 0 11 0 C11 1.65 11 3.3 11 5 C7.37 5 3.74 5 0 5 C0 3.35 0 1.7 0 0 Z " fill="#767676" transform="translate(323,504)"/>
<path d="M0 0 C3.63 0 7.26 0 11 0 C11 1.65 11 3.3 11 5 C7.37 5 3.74 5 0 5 C0 3.35 0 1.7 0 0 Z " fill="#767676" transform="translate(323,498)"/>
<path d="M0 0 C3.63 0 7.26 0 11 0 C11 1.65 11 3.3 11 5 C7.37 5 3.74 5 0 5 C0 3.35 0 1.7 0 0 Z " fill="#767676" transform="translate(323,492)"/>
<path d="M0 0 C3.63 0 7.26 0 11 0 C11 1.65 11 3.3 11 5 C7.37 5 3.74 5 0 5 C0 3.35 0 1.7 0 0 Z " fill="#767676" transform="translate(323,486)"/>
<path d="M0 0 C2.97 0.495 2.97 0.495 6 1 C6.59732819 3.76264289 7 6.16032769 7 9 C7.04125 9.845625 7.0825 10.69125 7.125 11.5625 C7 14 7 14 5 16 C-0.33333333 16.33333333 -0.33333333 16.33333333 -3 15 C-3 14.34 -3 13.68 -3 13 C-0.69 13.33 1.62 13.66 4 14 C4.33 12.35 4.66 10.7 5 9 C3.68 8.67 2.36 8.34 1 8 C1.99 7.34 2.98 6.68 4 6 C4 5.01 4 4.02 4 3 C2.02 3 0.04 3 -2 3 C-1.34 2.01 -0.68 1.02 0 0 Z " fill="#424242" transform="translate(742,479)"/>
<path d="M0 0 C3.63 0 7.26 0 11 0 C11 1.65 11 3.3 11 5 C7.37 5 3.74 5 0 5 C0 3.35 0 1.7 0 0 Z " fill="#767676" transform="translate(323,480)"/>
<path d="M0 0 C3.63 0 7.26 0 11 0 C11 1.65 11 3.3 11 5 C7.37 5 3.74 5 0 5 C0 3.35 0 1.7 0 0 Z " fill="#767676" transform="translate(323,474)"/>
<path d="M0 0 C3.63 0 7.26 0 11 0 C11 1.65 11 3.3 11 5 C7.37 5 3.74 5 0 5 C0 3.35 0 1.7 0 0 Z " fill="#767676" transform="translate(323,468)"/>
<path d="M0 0 C3.63 0 7.26 0 11 0 C11 1.65 11 3.3 11 5 C7.37 5 3.74 5 0 5 C0 3.35 0 1.7 0 0 Z " fill="#767676" transform="translate(323,462)"/>
<path d="M0 0 C0.66 0 1.32 0 2 0 C2.33 2.97 2.66 5.94 3 9 C4.32 7.68 5.64 6.36 7 5 C7.66 5.33 8.32 5.66 9 6 C8.01 7.32 7.02 8.64 6 10 C7.98 12.97 7.98 12.97 10 16 C6.125 14.25 6.125 14.25 5 12 C4.01 11.67 3.02 11.34 2 11 C2 12.65 2 14.3 2 16 C1.34 16 0.68 16 0 16 C0 10.72 0 5.44 0 0 Z " fill="#474747" transform="translate(273,462)"/>
<path d="M0 0 C3.63 0 7.26 0 11 0 C11 1.65 11 3.3 11 5 C7.37 5 3.74 5 0 5 C0 3.35 0 1.7 0 0 Z " fill="#767676" transform="translate(323,456)"/>
<path d="M0 0 C3.63 0 7.26 0 11 0 C11 1.65 11 3.3 11 5 C7.37 5 3.74 5 0 5 C0 3.35 0 1.7 0 0 Z " fill="#767676" transform="translate(323,450)"/>
<path d="M0 0 C3.63 0 7.26 0 11 0 C11 1.65 11 3.3 11 5 C7.37 5 3.74 5 0 5 C0 3.35 0 1.7 0 0 Z " fill="#767676" transform="translate(323,444)"/>
<path d="M0 0 C3.63 0 7.26 0 11 0 C11 1.65 11 3.3 11 5 C7.37 5 3.74 5 0 5 C0 3.35 0 1.7 0 0 Z " fill="#767676" transform="translate(323,438)"/>
<path d="M0 0 C3.63 0 7.26 0 11 0 C11 1.65 11 3.3 11 5 C7.37 5 3.74 5 0 5 C0 3.35 0 1.7 0 0 Z " fill="#767676" transform="translate(323,432)"/>
<path d="M0 0 C3.63 0 7.26 0 11 0 C11 1.65 11 3.3 11 5 C7.37 5 3.74 5 0 5 C0 3.35 0 1.7 0 0 Z " fill="#767676" transform="translate(323,426)"/>
<path d="M0 0 C3.63 0 7.26 0 11 0 C11 1.65 11 3.3 11 5 C7.37 5 3.74 5 0 5 C0 3.35 0 1.7 0 0 Z " fill="#767676" transform="translate(323,420)"/>
<path d="M0 0 C3.63 0 7.26 0 11 0 C11 1.65 11 3.3 11 5 C7.37 5 3.74 5 0 5 C0 3.35 0 1.7 0 0 Z " fill="#767676" transform="translate(323,414)"/>
<path d="M0 0 C3.63 0 7.26 0 11 0 C11 1.65 11 3.3 11 5 C7.37 5 3.74 5 0 5 C0 3.35 0 1.7 0 0 Z " fill="#767676" transform="translate(323,408)"/>
<path d="M0 0 C3.63 0 7.26 0 11 0 C11 1.65 11 3.3 11 5 C7.37 5 3.74 5 0 5 C0 3.35 0 1.7 0 0 Z " fill="#767676" transform="translate(323,402)"/>
<path d="M0 0 C3.63 0 7.26 0 11 0 C11 1.65 11 3.3 11 5 C7.37 5 3.74 5 0 5 C0 3.35 0 1.7 0 0 Z " fill="#767676" transform="translate(323,396)"/>
<path d="M0 0 C3.63 0 7.26 0 11 0 C11 1.65 11 3.3 11 5 C7.37 5 3.74 5 0 5 C0 3.35 0 1.7 0 0 Z " fill="#767676" transform="translate(323,390)"/>
<path d="M0 0 C3.63 0 7.26 0 11 0 C11 1.65 11 3.3 11 5 C7.37 5 3.74 5 0 5 C0 3.35 0 1.7 0 0 Z " fill="#767676" transform="translate(323,384)"/>
<path d="M0 0 C3.63 0 7.26 0 11 0 C11 1.65 11 3.3 11 5 C7.37 5 3.74 5 0 5 C0 3.35 0 1.7 0 0 Z " fill="#767676" transform="translate(323,378)"/>
<path d="M0 0 C3.63 0 7.26 0 11 0 C11 1.65 11 3.3 11 5 C7.37 5 3.74 5 0 5 C0 3.35 0 1.7 0 0 Z " fill="#767676" transform="translate(323,372)"/>
<path d="M0 0 C3.63 0 7.26 0 11 0 C11 1.65 11 3.3 11 5 C7.37 5 3.74 5 0 5 C0 3.35 0 1.7 0 0 Z " fill="#767676" transform="translate(323,366)"/>
<path d="M0 0 C3.63 0 7.26 0 11 0 C11 1.65 11 3.3 11 5 C7.37 5 3.74 5 0 5 C0 3.35 0 1.7 0 0 Z " fill="#767676" transform="translate(323,360)"/>
<path d="M0 0 C3.63 0 7.26 0 11 0 C11 1.65 11 3.3 11 5 C7.37 5 3.74 5 0 5 C0 3.35 0 1.7 0 0 Z " fill="#767676" transform="translate(323,354)"/>
<path d="M0 0 C3.63 0 7.26 0 11 0 C11 1.65 11 3.3 11 5 C7.37 5 3.74 5 0 5 C0 3.35 0 1.7 0 0 Z " fill="#767676" transform="translate(323,348)"/>
<path d="M0 0 C3.63 0 7.26 0 11 0 C11 1.65 11 3.3 11 5 C7.37 5 3.74 5 0 5 C0 3.35 0 1.7 0 0 Z " fill="#767676" transform="translate(323,342)"/>
<path d="M0 0 C3.63 0 7.26 0 11 0 C11 1.65 11 3.3 11 5 C7.37 5 3.74 5 0 5 C0 3.35 0 1.7 0 0 Z " fill="#767676" transform="translate(323,336)"/>
<path d="M0 0 C3.63 0 7.26 0 11 0 C11 1.65 11 3.3 11 5 C7.37 5 3.74 5 0 5 C0 3.35 0 1.7 0 0 Z " fill="#767676" transform="translate(323,330)"/>
<path d="M0 0 C3.63 0 7.26 0 11 0 C11 1.65 11 3.3 11 5 C7.37 5 3.74 5 0 5 C0 3.35 0 1.7 0 0 Z " fill="#767676" transform="translate(323,324)"/>
<path d="M0 0 C3.63 0 7.26 0 11 0 C11 1.65 11 3.3 11 5 C7.37 5 3.74 5 0 5 C0 3.35 0 1.7 0 0 Z " fill="#767676" transform="translate(323,318)"/>
<path d="M0 0 C3.63 0 7.26 0 11 0 C11 1.65 11 3.3 11 5 C7.37 5 3.74 5 0 5 C0 3.35 0 1.7 0 0 Z " fill="#767676" transform="translate(323,312)"/>
<path d="M0 0 C3.63 0 7.26 0 11 0 C11 1.65 11 3.3 11 5 C7.37 5 3.74 5 0 5 C0 3.35 0 1.7 0 0 Z " fill="#767676" transform="translate(323,306)"/>
<path d="M0 0 C3.63 0 7.26 0 11 0 C11 1.65 11 3.3 11 5 C7.37 5 3.74 5 0 5 C0 3.35 0 1.7 0 0 Z " fill="#6A6A6A" transform="translate(323,300)"/>
<path d="M0 0 C1 1 1 1 1.09765625 3.28515625 C1.08605469 4.20167969 1.07445312 5.11820312 1.0625 6.0625 C1.05347656 6.98160156 1.04445313 7.90070313 1.03515625 8.84765625 C1.02355469 9.55792969 1.01195312 10.26820313 1 11 C0.34 11 -0.32 11 -1 11 C-1 7.7 -1 4.4 -1 1 C-2.65 1.66 -4.3 2.32 -6 3 C-6.33 5.64 -6.66 8.28 -7 11 C-7.66 11 -8.32 11 -9 11 C-9 7.37 -9 3.74 -9 0 C-3.23076923 -1.15384615 -3.23076923 -1.15384615 0 0 Z " fill="#4C4C4C" transform="translate(736,481)"/>
<path d="M0 0 C1 1 1 1 1.09765625 3.28515625 C1.08605469 4.20167969 1.07445312 5.11820312 1.0625 6.0625 C1.05347656 6.98160156 1.04445313 7.90070313 1.03515625 8.84765625 C1.02355469 9.55792969 1.01195312 10.26820313 1 11 C0.34 11 -0.32 11 -1 11 C-1 7.7 -1 4.4 -1 1 C-2.65 1.66 -4.3 2.32 -6 3 C-6.33 5.64 -6.66 8.28 -7 11 C-7.66 11 -8.32 11 -9 11 C-9 7.37 -9 3.74 -9 0 C-3.23076923 -1.15384615 -3.23076923 -1.15384615 0 0 Z " fill="#4C4C4C" transform="translate(662,481)"/>
<path d="M0 0 C1 1 1 1 1.09765625 3.28515625 C1.08605469 4.20167969 1.07445312 5.11820312 1.0625 6.0625 C1.05347656 6.98160156 1.04445313 7.90070313 1.03515625 8.84765625 C1.02355469 9.55792969 1.01195312 10.26820313 1 11 C0.34 11 -0.32 11 -1 11 C-1 7.7 -1 4.4 -1 1 C-2.65 1.66 -4.3 2.32 -6 3 C-6.33 5.64 -6.66 8.28 -7 11 C-7.66 11 -8.32 11 -9 11 C-9 7.37 -9 3.74 -9 0 C-3.23076923 -1.15384615 -3.23076923 -1.15384615 0 0 Z " fill="#4C4C4C" transform="translate(589,481)"/>
<path d="M0 0 C1 1 1 1 1.09765625 3.28515625 C1.08605469 4.20167969 1.07445312 5.11820312 1.0625 6.0625 C1.05347656 6.98160156 1.04445313 7.90070313 1.03515625 8.84765625 C1.02355469 9.55792969 1.01195312 10.26820313 1 11 C0.34 11 -0.32 11 -1 11 C-1 7.7 -1 4.4 -1 1 C-2.65 1.66 -4.3 2.32 -6 3 C-6.33 5.64 -6.66 8.28 -7 11 C-7.66 11 -8.32 11 -9 11 C-9 7.37 -9 3.74 -9 0 C-3.23076923 -1.15384615 -3.23076923 -1.15384615 0 0 Z " fill="#4C4C4C" transform="translate(513,481)"/>
<path d="M0 0 C2.31 0 4.62 0 7 0 C7.625 2.375 7.625 2.375 8 5 C6 7 6 7 2.875 7.125 C1.451875 7.063125 1.451875 7.063125 0 7 C0 4.69 0 2.38 0 0 Z " fill="#F4F4F4" transform="translate(81,464)"/>
<path d="M0 0 C0.66 0 1.32 0 2 0 C2 4.62 2 9.24 2 14 C4.64 14 7.28 14 10 14 C10 14.66 10 15.32 10 16 C6.7 16 3.4 16 0 16 C0 10.72 0 5.44 0 0 Z " fill="#525252" transform="translate(189,462)"/>
<path d="M0 0 C4.46966667 1.4575 4.46966667 1.4575 5.875 3.9375 C5.5625 7.625 5.5625 7.625 4.875 10.9375 C4.545 10.9375 4.215 10.9375 3.875 10.9375 C3.215 8.6275 2.555 6.3175 1.875 3.9375 C-0.52219432 3.25791397 -0.52219432 3.25791397 -3.125 2.9375 C-5.6904594 5.5029594 -5.66546087 7.41436668 -6.125 10.9375 C-6.455 10.9375 -6.785 10.9375 -7.125 10.9375 C-7.9375 7.6875 -7.9375 7.6875 -8.125 3.9375 C-5.49788197 0.7531145 -4.14890834 -0.08297817 0 0 Z " fill="#2E2E2E" transform="translate(588.125,403.0625)"/>
<path d="M0 0 C0.78375 0.2475 1.5675 0.495 2.375 0.75 C2.705 1.41 3.035 2.07 3.375 2.75 C2.405625 2.729375 1.43625 2.70875 0.4375 2.6875 C-2.49965895 2.39381501 -2.49965895 2.39381501 -3.625 3.75 C-3.66563832 5.41617115 -3.667721 7.08388095 -3.625 8.75 C-0.04172247 9.75217064 -0.04172247 9.75217064 3.375 8.75 C3.045 9.74 2.715 10.73 2.375 11.75 C-0.4375 12 -0.4375 12 -3.625 11.75 C-5.5625 10.125 -5.5625 10.125 -6.625 7.75 C-6.5 4.625 -6.5 4.625 -5.625 1.75 C-2.625 -0.25 -2.625 -0.25 0 0 Z " fill="#3A3A3A" transform="translate(266.625,466.25)"/>
<path d="M0 0 C0.66 0 1.32 0 2 0 C2 0.99 2 1.98 2 3 C2.99 3 3.98 3 5 3 C5 3.66 5 4.32 5 5 C4.01 5 3.02 5 2 5 C2.185625 6.918125 2.185625 6.918125 2.375 8.875 C2.44460938 9.59429687 2.51421875 10.31359375 2.5859375 11.0546875 C2.86374749 13.22668245 2.86374749 13.22668245 5 15 C3.35 14.67 1.7 14.34 0 14 C-0.19627391 12.41773035 -0.38165538 10.83410729 -0.5625 9.25 C-0.66691406 8.36828125 -0.77132812 7.4865625 -0.87890625 6.578125 C-0.99456676 4.11567549 -0.73638695 2.33461936 0 0 Z " fill="#4E4E4E" transform="translate(742,329)"/>
<path d="M0 0 C0 3.96 0 7.92 0 12 C0.66 12.33 1.32 12.66 2 13 C-0.31 13 -2.62 13 -5 13 C-4.01 12.67 -3.02 12.34 -2 12 C-2 9.03 -2 6.06 -2 3 C-3.32 3.33 -4.64 3.66 -6 4 C-2.25 0 -2.25 0 0 0 Z " fill="#3C3C3C" transform="translate(598,479)"/>
<path d="M0 0 C1.65 0 3.3 0 5 0 C5.33 1.32 5.66 2.64 6 4 C3.36 4 0.72 4 -2 4 C-1.34 2.68 -0.68 1.36 0 0 Z " fill="#EEEEEE" transform="translate(119,468)"/>
<path d="M0 0 C1.98 0 3.96 0 6 0 C6.33 1.32 6.66 2.64 7 4 C4.36 4 1.72 4 -1 4 C-0.67 2.68 -0.34 1.36 0 0 Z " fill="#EFEFEF" transform="translate(95,468)"/>
<path d="M0 0 C0.33 0 0.66 0 1 0 C1.48539326 7.28089888 1.48539326 7.28089888 -0.6875 10.5 C-3.37976221 12.24633224 -4.85160094 12.34982212 -8 12 C-6 10.66666667 -4 9.33333333 -2 8 C-1.21011855 6.04614933 -1.21011855 6.04614933 -0.8125 3.875 C-0.544375 2.59625 -0.27625 1.3175 0 0 Z " fill="#151515" transform="translate(667,409)"/>
<path d="M0 0 C0.66 0 1.32 0 2 0 C2 3.63 2 7.26 2 11 C0.68 10.34 -0.64 9.68 -2 9 C-1.67 8.67 -1.34 8.34 -1 8 C-0.76924918 6.65252916 -0.58846937 5.29622435 -0.4375 3.9375 C-0.293125 2.638125 -0.14875 1.33875 0 0 Z " fill="#4D4D4D" transform="translate(737,333)"/>
<path d="M0 0 C0.66 0 1.32 0 2 0 C2 3.63 2 7.26 2 11 C0.68 10.34 -0.64 9.68 -2 9 C-1.67 8.67 -1.34 8.34 -1 8 C-0.76924918 6.65252916 -0.58846937 5.29622435 -0.4375 3.9375 C-0.293125 2.638125 -0.14875 1.33875 0 0 Z " fill="#4C4C4C" transform="translate(663,333)"/>
<path d="M0 0 C0.66 0 1.32 0 2 0 C2 3.63 2 7.26 2 11 C0.68 10.34 -0.64 9.68 -2 9 C-1.67 8.67 -1.34 8.34 -1 8 C-0.76924918 6.65252916 -0.58846937 5.29622435 -0.4375 3.9375 C-0.293125 2.638125 -0.14875 1.33875 0 0 Z " fill="#4C4C4C" transform="translate(590,333)"/>
<path d="M0 0 C0.66 0 1.32 0 2 0 C2 3.63 2 7.26 2 11 C0.68 10.34 -0.64 9.68 -2 9 C-1.67 8.67 -1.34 8.34 -1 8 C-0.76924918 6.65252916 -0.58846937 5.29622435 -0.4375 3.9375 C-0.293125 2.638125 -0.14875 1.33875 0 0 Z " fill="#4C4C4C" transform="translate(514,333)"/>
<path d="M0 0 C0.103125 0.639375 0.20625 1.27875 0.3125 1.9375 C0.539375 2.618125 0.76625 3.29875 1 4 C1.99 4.33 2.98 4.66 4 5 C3.01 5 2.02 5 1 5 C1.185625 6.918125 1.185625 6.918125 1.375 8.875 C1.44460937 9.59429687 1.51421875 10.31359375 1.5859375 11.0546875 C1.86374749 13.22668245 1.86374749 13.22668245 4 15 C2.68 15 1.36 15 0 15 C0 11.7 0 8.4 0 5 C-0.66 4.67 -1.32 4.34 -2 4 C-1.34 4 -0.68 4 0 4 C0 2.68 0 1.36 0 0 Z " fill="#161616" transform="translate(130,463)"/>
<path d="M0 0 C0.103125 0.639375 0.20625 1.27875 0.3125 1.9375 C0.539375 2.618125 0.76625 3.29875 1 4 C1.99 4.33 2.98 4.66 4 5 C3.01 5 2.02 5 1 5 C1.185625 6.918125 1.185625 6.918125 1.375 8.875 C1.44460938 9.59429687 1.51421875 10.31359375 1.5859375 11.0546875 C1.86374749 13.22668245 1.86374749 13.22668245 4 15 C2.68 15 1.36 15 0 15 C0 11.7 0 8.4 0 5 C-0.66 4.67 -1.32 4.34 -2 4 C-1.34 4 -0.68 4 0 4 C0 2.68 0 1.36 0 0 Z " fill="#181818" transform="translate(669,329)"/>
<path d="M0 0 C0.103125 0.639375 0.20625 1.27875 0.3125 1.9375 C0.539375 2.618125 0.76625 3.29875 1 4 C1.99 4.33 2.98 4.66 4 5 C3.01 5 2.02 5 1 5 C1.185625 6.918125 1.185625 6.918125 1.375 8.875 C1.44460938 9.59429687 1.51421875 10.31359375 1.5859375 11.0546875 C1.86374749 13.22668245 1.86374749 13.22668245 4 15 C2.68 15 1.36 15 0 15 C0 11.7 0 8.4 0 5 C-0.66 4.67 -1.32 4.34 -2 4 C-1.34 4 -0.68 4 0 4 C0 2.68 0 1.36 0 0 Z " fill="#181818" transform="translate(596,329)"/>
<path d="M0 0 C0.103125 0.639375 0.20625 1.27875 0.3125 1.9375 C0.539375 2.618125 0.76625 3.29875 1 4 C1.99 4.33 2.98 4.66 4 5 C3.01 5 2.02 5 1 5 C1.185625 6.918125 1.185625 6.918125 1.375 8.875 C1.44460938 9.59429687 1.51421875 10.31359375 1.5859375 11.0546875 C1.86374749 13.22668245 1.86374749 13.22668245 4 15 C2.68 15 1.36 15 0 15 C0 11.7 0 8.4 0 5 C-0.66 4.67 -1.32 4.34 -2 4 C-1.34 4 -0.68 4 0 4 C0 2.68 0 1.36 0 0 Z " fill="#171717" transform="translate(520,329)"/>
<path d="M0 0 C0.33 0 0.66 0 1 0 C1.0825 1.258125 1.165 2.51625 1.25 3.8125 C1.66557143 7.33811212 1.66557143 7.33811212 4.0625 10 C4.701875 10.33 5.34125 10.66 6 11 C4.33388095 11.042721 2.66617115 11.04063832 1 11 C0 10 0 10 -0.09765625 7.71484375 C-0.08605469 6.79832031 -0.07445312 5.88179688 -0.0625 4.9375 C-0.05347656 4.01839844 -0.04445313 3.09929687 -0.03515625 2.15234375 C-0.02355469 1.44207031 -0.01195312 0.73179687 0 0 Z " fill="#242424" transform="translate(729,333)"/>
<path d="M0 0 C0.33 0 0.66 0 1 0 C1.0825 1.258125 1.165 2.51625 1.25 3.8125 C1.66557143 7.33811212 1.66557143 7.33811212 4.0625 10 C4.701875 10.33 5.34125 10.66 6 11 C4.33388095 11.042721 2.66617115 11.04063832 1 11 C0 10 0 10 -0.09765625 7.71484375 C-0.08605469 6.79832031 -0.07445312 5.88179688 -0.0625 4.9375 C-0.05347656 4.01839844 -0.04445313 3.09929687 -0.03515625 2.15234375 C-0.02355469 1.44207031 -0.01195312 0.73179687 0 0 Z " fill="#232323" transform="translate(655,333)"/>
<path d="M0 0 C0.33 0 0.66 0 1 0 C1.0825 1.258125 1.165 2.51625 1.25 3.8125 C1.66557143 7.33811212 1.66557143 7.33811212 4.0625 10 C4.701875 10.33 5.34125 10.66 6 11 C4.33388095 11.042721 2.66617115 11.04063832 1 11 C0 10 0 10 -0.09765625 7.71484375 C-0.08605469 6.79832031 -0.07445312 5.88179688 -0.0625 4.9375 C-0.05347656 4.01839844 -0.04445313 3.09929687 -0.03515625 2.15234375 C-0.02355469 1.44207031 -0.01195312 0.73179687 0 0 Z " fill="#232323" transform="translate(582,333)"/>
<path d="M0 0 C0.33 0 0.66 0 1 0 C1.0825 1.258125 1.165 2.51625 1.25 3.8125 C1.66557143 7.33811212 1.66557143 7.33811212 4.0625 10 C4.701875 10.33 5.34125 10.66 6 11 C4.33388095 11.042721 2.66617115 11.04063832 1 11 C0 10 0 10 -0.09765625 7.71484375 C-0.08605469 6.79832031 -0.07445312 5.88179688 -0.0625 4.9375 C-0.05347656 4.01839844 -0.04445313 3.09929687 -0.03515625 2.15234375 C-0.02355469 1.44207031 -0.01195312 0.73179687 0 0 Z " fill="#222222" transform="translate(506,333)"/>
<path d="M0 0 C1.32 0.99 2.64 1.98 4 3 C3.67 5.31 3.34 7.62 3 10 C2.67 10 2.34 10 2 10 C0 3.375 0 3.375 0 0 Z " fill="#404040" transform="translate(664,404)"/>
<path d="M0 0 C1.32 0.99 2.64 1.98 4 3 C3.67 5.31 3.34 7.62 3 10 C2.67 10 2.34 10 2 10 C0 3.375 0 3.375 0 0 Z " fill="#404040" transform="translate(590,404)"/>
</svg>
